<?xml version="1.0" encoding="UTF-8"?>
<!-- Generator: visioncortex VTracer 0.6.4 -->
<svg version="1.1" xmlns="http://www.w3.org/2000/svg" width="2005" height="1457">
<path d="M0 0 C661.65 0 1323.3 0 2005 0 C2005 480.81 2005 961.62 2005 1457 C1343.35 1457 681.7 1457 0 1457 C0 976.19 0 495.38 0 0 Z M1015 61 C1013.91 64.26 1014.03 66.4 1014.19 69.81 C1014.2 75.15 1013.86 78.04 1010 82 C1000.15 90.06 988.11 93.56 975.88 96.19 C974.77 96.43 973.67 96.68 972.54 96.94 C958.37 100.09 944.21 102.51 929.8 104.25 C925.15 104.82 920.57 105.59 915.97 106.48 C912.77 107.04 909.58 107.48 906.36 107.89 C847.66 115.59 790.07 124.02 737 152 C736.16 152.44 735.33 152.88 734.46 153.33 C726.48 157.65 719.14 162.87 711.75 168.12 C711.16 168.54 710.57 168.96 709.96 169.4 C704.85 173.04 704.85 173.04 700 177 C700 177.66 700 178.32 700 179 C699.34 179 698.68 179 698 179 C683.55 193.96 676.04 211.74 673 232 C672.77 233.42 672.77 233.42 672.53 234.86 C671.41 243.33 672.76 251.62 674 260 C674.11 260.88 674.22 261.76 674.34 262.67 C675.45 269.46 679.03 275.46 683 281 C683.66 281 684.32 281 685 281 C685.24 281.6 685.47 282.19 685.71 282.81 C689.19 288.73 697.6 291.51 703.89 293.46 C720.95 297.86 741.23 296.83 756.86 288.47 C760.72 286.06 763.38 283.75 766 280 C765.28 277.98 765.28 277.98 764 276 C761.95 275.19 761.95 275.19 760 275 C760 274.34 760 273.68 760 273 C759.34 273 758.68 273 758 273 C758 272.34 758 271.68 758 271 C757.59 270.61 757.17 270.22 756.75 269.81 C751.94 264.83 749.97 258.48 748 252 C747.67 251.01 747.34 250.02 747 249 C745.65 222.98 752.5 200.37 768.71 179.83 C770.19 178.1 770.19 178.1 770 176 C770.66 176 771.32 176 772 176 C772 175.34 772 174.68 772 174 C772.99 173.67 773.98 173.34 775 173 C775.68 172.13 776.36 171.27 777.06 170.38 C781.39 164.91 787.74 160.95 794 158 C794 157.34 794 156.68 794 156 C794.79 155.74 794.79 155.74 795.6 155.48 C799.79 154.11 803.94 152.67 808.06 151.1 C818.95 146.96 829.6 143.6 841.04 141.41 C843.05 140.99 845.02 140.47 847 139.94 C850.99 138.93 854.96 138.52 859.06 138.31 C859.8 138.27 860.53 138.24 861.29 138.2 C876.36 137.54 890.57 139.8 905 144 C906.2 144.32 907.4 144.64 908.64 144.97 C919.37 147.85 929.93 151.18 940.5 154.62 C950.62 157.9 960.79 161.02 971 164 C972.8 164.53 972.8 164.53 974.64 165.06 C977.91 165.98 981.19 166.8 984.5 167.56 C985.56 167.81 986.62 168.06 987.72 168.32 C1007.94 172.53 1031.97 171.05 1049.96 160.21 C1064.57 150.14 1073.86 135.45 1077.38 118.12 C1079.69 104.49 1078.46 91.83 1071 80 C1070.34 80 1069.68 80 1069 80 C1069 79.34 1069 78.68 1069 78 C1067.61 76.56 1067.61 76.56 1065.81 75.12 C1065.22 74.63 1064.63 74.14 1064.02 73.63 C1063.35 73.09 1062.69 72.56 1062 72 C1061.23 71.35 1060.47 70.7 1059.68 70.03 C1048.43 61.5 1028.63 53.66 1015 61 Z M849 155 C847.89 155.5 846.77 155.99 845.62 156.5 C841.66 158.76 837.99 161.53 835 165 C835 165.66 835 166.32 835 167 C834.34 167 833.68 167 833 167 C827.61 173.38 823.72 180.85 819.94 188.25 C819.41 189.27 818.89 190.29 818.35 191.34 C808.75 210.19 802.13 230.07 795.21 250.03 C789.38 266.82 783.4 283.29 775 299 C774.53 299.89 774.05 300.78 773.56 301.7 C771.3 305.86 768.87 309.9 766.31 313.88 C765.24 315.61 764.24 317.38 763.27 319.16 C760.13 324.68 756.21 329.68 752.43 334.77 C751.86 335.54 751.29 336.32 750.7 337.11 C750.18 337.81 749.66 338.51 749.13 339.23 C747.82 340.93 747.82 340.93 748 343 C747.34 343 746.68 343 746 343 C744.81 344.41 743.63 345.83 742.51 347.3 C735.13 355.61 724.08 361.94 713 363 C706.15 362.67 700.82 361.66 695 358 C694.34 358 693.68 358 693 358 C692.67 356.68 692.34 355.36 692 354 C688.92 354.66 688.92 354.66 687.9 356.9 C679.67 378.03 679.99 401.88 688 423 C695.04 438.78 706.48 451.08 722.36 458.09 C735.71 462.69 752.5 460.93 765 454.88 C771.32 451.65 776.75 447.76 782 443 C782.71 442.37 783.42 441.74 784.16 441.09 C800.58 425.65 812.52 405.25 822 385 C822.34 384.27 822.69 383.54 823.04 382.78 C835.74 355.58 846.15 327.66 855 299 C855.36 297.85 855.72 296.7 856.09 295.52 C857.63 290.55 859.12 285.58 860.55 280.57 C866.52 259.78 873.79 239.36 881.1 219.01 C883.45 212.43 885.73 205.84 887.85 199.18 C891.46 187.89 895.68 176.82 902.74 167.18 C905.19 164.38 905.19 164.38 905 162 C905.66 162 906.32 162 907 162 C909.2 158.06 910.18 155.49 910 151 C890.74 146.15 867.28 146.23 849 155 Z M925 156 C923.08 157.92 923.79 160.77 923.71 163.33 C922.98 186.05 917.12 206.21 908 227 C906.68 230.08 905.37 233.16 904.06 236.25 C903.71 237.07 903.36 237.9 903.01 238.75 C900.69 244.25 898.55 249.78 896.5 255.38 C889.18 275.1 880.83 294.42 872 313.5 C862.37 334.31 853.09 355.24 846.5 377.25 C846.17 378.33 845.85 379.41 845.51 380.53 C840.21 398.58 840.21 398.58 842.19 416.88 C845.28 422.21 849.48 424.53 855 427 C859.95 428.05 864.97 428.51 870 429 C870.69 429.07 871.38 429.14 872.09 429.21 C889 431.05 889 431.05 904.95 426.9 C906.64 423.86 906.17 420.74 906 417.38 C905.34 385.15 921.47 353.94 936 326 C936.91 324.23 937.83 322.46 938.74 320.69 C969.65 260.9 969.65 260.9 980 254 C980 253.34 980 252.68 980 252 C985.5 251.63 985.5 251.63 987.7 253.24 C989.85 256.16 989.09 258.59 988.62 262.04 C987.43 267.7 985.33 273 983.25 278.38 C982.6 280.09 982.6 280.09 981.95 281.84 C978.07 292.06 974.19 302.24 968.88 311.81 C954.27 338.88 937.92 372.02 945.32 403.82 C947.34 410.3 952.43 415.32 958 419 C964.94 422.54 971.07 423.66 978.81 423.5 C980.26 423.48 980.26 423.48 981.74 423.46 C1000.14 422.93 1015.51 414.01 1029 402 C1029.73 401.38 1030.46 400.76 1031.21 400.12 C1035.16 396.74 1038.83 393.2 1042.36 389.38 C1044.22 387.81 1045.62 387.4 1048 387 C1048.66 388.32 1049.32 389.64 1050 391 C1050.66 391 1051.32 391 1052 391 C1052.26 391.59 1052.53 392.19 1052.8 392.8 C1058.01 402.34 1070.9 408.54 1080.94 411.62 C1111.71 420.06 1139.83 412.26 1167 397 C1168.01 396.45 1169.02 395.89 1170.05 395.32 C1170.7 394.88 1171.34 394.45 1172 394 C1172 393.34 1172 392.68 1172 392 C1172.74 391.73 1173.48 391.47 1174.24 391.19 C1178.75 389.24 1182.24 386.12 1186 383 C1186.84 382.3 1187.69 381.61 1188.56 380.89 C1197.26 373.42 1202.65 364.79 1208.29 354.91 C1210.35 351.41 1212.6 348.07 1214.93 344.74 C1216.17 343.06 1216.17 343.06 1216 341 C1216.66 341 1217.32 341 1218 341 C1219.26 339.37 1219.26 339.37 1220.47 337.22 C1220.95 336.41 1221.44 335.59 1221.94 334.75 C1222.45 333.86 1222.97 332.98 1223.5 332.06 C1224.03 331.16 1224.56 330.26 1225.11 329.33 C1226.21 327.46 1227.31 325.6 1228.4 323.73 C1229.88 321.21 1231.37 318.7 1232.88 316.2 C1233.75 314.74 1234.63 313.28 1235.5 311.81 C1235.9 311.16 1236.29 310.5 1236.7 309.82 C1241.86 301.46 1241.86 301.46 1244.12 292.12 C1242.41 288.89 1240.39 288.21 1237 287 C1234 286.17 1234 286.17 1231 287 C1229.53 288.32 1229.53 288.32 1228.18 290.04 C1227.4 290.99 1227.4 290.99 1226.6 291.96 C1223.48 295.93 1220.52 300.02 1217.59 304.13 C1214.54 308.29 1211.4 311.6 1207.32 314.77 C1206.88 315.18 1206.45 315.58 1206 316 C1206 316.66 1206 317.32 1206 318 C1205.29 318.27 1204.57 318.54 1203.84 318.82 C1200.97 320.01 1198.3 321.41 1195.56 322.88 C1188.92 326.22 1182.2 328.23 1175 330 C1173.74 330.32 1173.74 330.32 1172.45 330.65 C1162.04 333.05 1149.28 335.1 1139.64 329.67 C1138.67 328.94 1138.67 328.94 1137.69 328.19 C1137.03 327.71 1136.38 327.23 1135.7 326.73 C1133.67 324.66 1132.91 322.72 1132 320 C1133.65 319.94 1133.65 319.94 1135.33 319.89 C1160.34 318.86 1178.91 307.75 1198 292 C1199.52 290.86 1199.52 290.86 1201.06 289.69 C1209.12 282.32 1214.65 273.96 1219 264 C1219.32 263.29 1219.63 262.58 1219.96 261.85 C1224.68 250.41 1227.34 232.84 1222.66 221.04 C1221.24 218.23 1219.77 215.6 1218 213 C1217.34 213 1216.68 213 1216 213 C1216 212.34 1216 211.68 1216 211 C1204.21 203.43 1191.85 201.3 1178 202 C1176.83 202.03 1175.66 202.06 1174.45 202.09 C1150.33 203.1 1126.1 213.48 1107 228 C1106.2 228.6 1106.2 228.6 1105.38 229.21 C1093.96 237.8 1083.17 247.13 1075 259 C1075 259.66 1075 260.32 1075 261 C1074.34 261 1073.68 261 1073 261 C1071.19 263.32 1069.52 265.63 1067.88 268.06 C1067.14 269.15 1067.14 269.15 1066.38 270.26 C1053.36 289.78 1044.75 312.04 1040 335 C1039.67 335.66 1039.34 336.32 1039 337 C1032.51 337.37 1032.51 337.37 1030.29 335.77 C1027.76 332.3 1028.58 328.1 1029 324 C1030.06 318.44 1032.15 313.55 1034.74 308.54 C1053.08 273.86 1053.08 273.86 1056 236 C1053.04 227.68 1049.42 222.5 1041.7 218.2 C1037.43 216.31 1033.64 215.94 1029 216 C1027.66 216 1027.66 216 1026.3 216 C1009.71 216.71 987.22 223.82 975.33 235.66 C974.5 236.59 973.67 237.53 972.81 238.5 C971.55 239.91 971.55 239.91 970.27 241.34 C968.42 243.51 966.67 245.69 965 248 C965.61 242.55 967.51 238.05 969.62 233.06 C975.51 218.76 980.01 204.02 983.44 188.94 C983.6 188.22 983.77 187.5 983.93 186.76 C984.79 182.78 985.16 179.07 985 175 C983.93 174.72 982.87 174.44 981.77 174.15 C970.85 171.24 960.24 167.76 949.61 163.94 C945.04 162.3 940.46 160.68 935.88 159.06 C935.02 158.76 934.16 158.45 933.27 158.13 C932.08 157.71 932.08 157.71 930.87 157.29 C930.17 157.04 929.47 156.79 928.75 156.53 C926.99 155.9 926.99 155.9 925 156 Z M693 168 C691.02 169.98 689.04 171.96 687 174 C687.33 174.66 687.66 175.32 688 176 C689.98 174.02 691.96 172.04 694 170 C693.67 169.34 693.34 168.68 693 168 Z M1320 372 C1319.62 373.26 1319.62 373.26 1319.23 374.55 C1317.89 378.3 1316.16 381.71 1314.25 385.19 C1313.71 386.17 1313.71 386.17 1313.17 387.18 C1312.45 388.51 1311.73 389.83 1311 391.16 C1310.13 392.76 1309.27 394.38 1308.42 396 C1302.58 407.04 1295.6 416.8 1287.42 426.19 C1283.26 430.51 1283.26 430.51 1282 436 C1283.97 437.37 1285.98 438.7 1288 440 C1290.13 443.19 1290.5 445.27 1291 449 C1291.66 449 1292.32 449 1293 449 C1293 449.99 1293 450.98 1293 452 C1295 451.21 1295 451.21 1297 450 C1297.33 449.01 1297.66 448.02 1298 447 C1298.66 447 1299.32 447 1300 447 C1301.23 445.3 1302.46 443.59 1303.65 441.86 C1305.51 439.3 1307.77 437.23 1310 435 C1314.79 429.46 1314.79 429.46 1318 423 C1318.62 422.44 1319.24 421.89 1319.88 421.31 C1322.37 418.59 1323.19 416.18 1324.29 412.71 C1325 411 1325 411 1327 410 C1327 409.34 1327 408.68 1327 408 C1327.66 408 1328.32 408 1329 408 C1333.61 401.85 1334.68 393.99 1334.59 386.47 C1334.22 383.92 1334.22 383.92 1332.32 382.43 C1330.89 381.64 1329.45 380.9 1327.98 380.19 C1324.68 378.2 1324.12 375.58 1323 372 C1322.01 372 1321.02 372 1320 372 Z M1535.69 398.88 C1534.82 398.95 1533.95 399.03 1533.06 399.11 C1525.98 399.6 1525.98 399.6 1520 403 C1519.96 404.38 1519.99 405.75 1520.04 407.13 C1520.46 421.9 1518.48 433.69 1513.25 447.52 C1512.99 448.2 1512.73 448.89 1512.46 449.6 C1509.93 456.27 1507.23 462.86 1504.51 469.45 C1497.95 485.33 1492.03 501.39 1486.4 517.62 C1481.41 531.97 1475.94 546.11 1469.43 559.86 C1467.3 564.53 1465.45 569.31 1463.59 574.1 C1462.01 578.07 1460.22 581.94 1458.44 585.83 C1444.5 616.52 1430.37 648.27 1422 681 C1421.7 682.13 1421.7 682.13 1421.4 683.28 C1419.26 691.53 1417.7 699.68 1417.12 708.19 C1417.08 708.87 1417.03 709.55 1416.98 710.26 C1416.7 716.1 1417.58 720.82 1420.79 725.74 C1423.2 728.2 1425.36 729.63 1428.44 731.19 C1429.36 731.68 1430.29 732.16 1431.25 732.67 C1441.18 736.19 1451.63 736.32 1462.06 736.25 C1463.24 736.26 1464.42 736.27 1465.63 736.27 C1473.27 736.26 1480.5 735.51 1488 734 C1488.98 729.55 1489.04 725.35 1488.94 720.81 C1488.88 714.25 1489.31 708.37 1491 702 C1491.25 701.04 1491.5 700.07 1491.76 699.08 C1494.44 689.31 1497.91 679.98 1501.62 670.56 C1502.25 668.97 1502.88 667.37 1503.5 665.77 C1507.71 655.05 1512.15 644.45 1516.83 633.92 C1518.87 629.34 1520.76 624.71 1522.62 620.06 C1525.97 611.81 1529.89 603.9 1534 596 C1534.55 594.92 1534.55 594.92 1535.12 593.83 C1539.2 585.9 1543.37 578.12 1548.27 570.66 C1550.18 567.72 1552 564.74 1553.81 561.75 C1569.49 536.31 1569.49 536.31 1576 532 C1578.67 531.38 1580.25 531.54 1583 532 C1585.69 537.39 1584.44 545.33 1582.81 550.94 C1582.23 552.63 1581.63 554.32 1581 556 C1580.64 557.02 1580.27 558.04 1579.9 559.09 C1577.93 564.42 1575.76 569.53 1573.2 574.6 C1569.98 580.98 1567.02 587.46 1564.12 594 C1563.6 595.18 1563.08 596.35 1562.55 597.56 C1558.12 607.62 1553.97 617.76 1550 628 C1549.34 629.68 1548.69 631.37 1548.03 633.05 C1546.83 636.13 1545.64 639.2 1544.45 642.28 C1543.64 644.35 1542.82 646.42 1541.93 648.45 C1540.57 652.16 1539.77 655.96 1538.94 659.81 C1538.76 660.58 1538.59 661.35 1538.41 662.14 C1536.41 671.24 1535.77 680.01 1535.69 689.31 C1535.64 690.91 1535.64 690.91 1535.6 692.54 C1535.52 702.29 1537.77 711.31 1544 719 C1544.66 719 1545.32 719 1546 719 C1546 719.66 1546 720.32 1546 721 C1557.33 729.24 1570.17 731.5 1584 730 C1597.92 726.92 1610.39 719.76 1621.94 711.62 C1622.55 711.2 1623.16 710.77 1623.79 710.33 C1625.23 709.27 1626.62 708.14 1628 707 C1628 706.34 1628 705.68 1628 705 C1628.74 704.75 1629.49 704.5 1630.25 704.25 C1633.22 702.9 1634.76 701.32 1637 699 C1637.99 698.67 1638.98 698.34 1640 698 C1640.39 698.86 1640.39 698.86 1640.8 699.73 C1646.31 710.12 1655.8 715.12 1666.49 718.88 C1684.79 723.43 1704.16 719.24 1720.21 710.09 C1724.5 707.48 1728.26 704.33 1732 701 C1733.27 699.94 1734.54 698.87 1735.81 697.81 C1738.68 695.32 1741.43 692.8 1744 690 C1744 689.34 1744 688.68 1744 688 C1744.66 688 1745.32 688 1746 688 C1747.81 686.29 1747.81 686.29 1749.62 684.12 C1750.26 683.41 1750.89 682.69 1751.54 681.95 C1753.2 680.14 1753.2 680.14 1753 678 C1753.66 678 1754.32 678 1755 678 C1757.63 674.89 1759.77 671.4 1762 668 C1762.37 667.44 1762.74 666.87 1763.13 666.29 C1774.54 648.9 1783.51 630.34 1791.94 611.36 C1793.32 608.29 1794.75 605.24 1796.19 602.19 C1798.52 597.11 1800.79 592.01 1803 586.88 C1803.33 586.14 1803.66 585.4 1803.99 584.65 C1805 582.34 1805 582.34 1806 579 C1805.34 578.01 1804.68 577.02 1804 576 C1797.82 575.48 1791.71 575.74 1786.75 579.88 C1785.88 580.93 1785.88 580.93 1785 582 C1784.13 583.02 1784.13 583.02 1783.25 584.06 C1781.73 586.04 1781.73 586.04 1782 589 C1781.34 589 1780.68 589 1780 589 C1778.57 590.93 1777.25 592.86 1775.94 594.88 C1768.55 605.81 1760.39 616.18 1747.25 620.12 C1743.07 619.96 1740.57 619.2 1737 617 C1732.16 609.03 1733.75 600.44 1735.71 591.76 C1740.51 572.85 1748.14 549.29 1759 533 C1766.65 531.67 1774.57 533.68 1782 535.44 C1783.02 535.67 1784.04 535.9 1785.1 536.13 C1788.79 536.97 1792.41 537.8 1796 539 C1798.32 536.89 1799.6 535.08 1800.78 532.19 C1801.09 531.43 1801.4 530.67 1801.73 529.89 C1802.22 528.67 1802.22 528.67 1802.72 527.42 C1803.07 526.58 1803.41 525.73 1803.77 524.86 C1804.5 523.07 1805.23 521.29 1805.95 519.5 C1807.05 516.77 1808.17 514.05 1809.28 511.33 C1809.99 509.59 1810.7 507.85 1811.41 506.11 C1811.91 504.9 1811.91 504.9 1812.41 503.66 C1816.44 494.59 1816.44 494.59 1816 485 C1802.91 486.61 1789.92 488.36 1777 491 C1779.25 483.64 1781.55 476.31 1784.01 469.02 C1784.36 467.98 1784.71 466.94 1785.07 465.88 C1785.75 463.84 1786.45 461.81 1787.14 459.78 C1793.77 441.34 1793.77 441.34 1791.56 422.5 C1780.19 411.41 1764 410.73 1749.02 410.84 C1739.24 411.13 1729.48 412.63 1720 415 C1720.06 415.9 1720.12 416.79 1720.18 417.72 C1720.51 427.04 1719.04 434.65 1715.89 443.45 C1714.84 446.47 1713.85 449.51 1712.88 452.56 C1705.94 474.02 1705.94 474.02 1701.48 483 C1699.25 487.52 1697.32 492.16 1695.36 496.8 C1694.14 499.63 1693.2 501.8 1691 504 C1687.64 504.14 1684.33 503.99 1680.97 503.88 C1677.88 503.67 1677.88 503.67 1676 506 C1675.33 507.9 1674.74 509.82 1674.19 511.75 C1672.35 517.97 1670.22 524.02 1667.95 530.1 C1666.84 532.97 1666.84 532.97 1667 536 C1669.97 536 1672.94 536 1676 536 C1675.43 541.66 1673.89 546.37 1671.75 551.62 C1671.11 553.23 1670.47 554.84 1669.82 556.45 C1669.51 557.23 1669.2 558.01 1668.87 558.82 C1667.74 561.66 1666.65 564.52 1665.56 567.38 C1660.61 580.24 1655.6 593.02 1649.66 605.46 C1646.67 611.84 1643.82 618.32 1641.27 624.89 C1639.88 628.36 1639.2 629.86 1636.06 632.06 C1633 633 1633 633 1630.75 632.56 C1628.18 630.27 1627.7 628.35 1627 625 C1627.44 620.22 1628.49 616.26 1630.37 611.85 C1630.86 610.69 1631.35 609.54 1631.85 608.34 C1632.11 607.74 1632.37 607.13 1632.63 606.51 C1633.73 603.94 1634.81 601.36 1635.89 598.79 C1636.45 597.46 1637 596.14 1637.56 594.82 C1644.07 579.36 1650.24 563.75 1656 548 C1656.48 546.71 1656.96 545.42 1657.44 544.13 C1657.89 542.89 1658.35 541.65 1658.81 540.38 C1659.41 538.75 1659.41 538.75 1660.02 537.09 C1663.34 526.64 1663.13 515.18 1659 505 C1655.58 498.58 1650.86 494.45 1644 492 C1633.85 489.8 1624.42 489.38 1614.31 491.69 C1613.13 491.96 1613.13 491.96 1611.91 492.23 C1596.25 495.96 1581.62 503.77 1570 515 C1570 515.66 1570 516.32 1570 517 C1569.04 517.4 1569.04 517.4 1568.06 517.81 C1565.67 518.89 1565.67 518.89 1565 522 C1564.34 522 1563.68 522 1563 522 C1561.65 523.31 1560.31 524.65 1559 526 C1558.34 526.33 1557.68 526.66 1557 527 C1558.92 519.78 1561.57 513.25 1564.88 506.56 C1566.59 503.05 1568.3 499.53 1570 496 C1570.42 495.13 1570.84 494.25 1571.28 493.35 C1574.57 486.34 1577.11 479.18 1579.5 471.81 C1579.89 470.63 1580.28 469.44 1580.68 468.22 C1581.44 465.87 1582.21 463.52 1582.97 461.17 C1583.84 458.49 1584.73 455.82 1585.62 453.14 C1588.26 445.17 1590.21 437.37 1591 429 C1591.18 427.33 1591.18 427.33 1591.36 425.62 C1591.71 419.87 1591.5 415.8 1588.12 411 C1581.7 404.04 1573.97 401.78 1565 399.69 C1563.9 399.43 1563.9 399.43 1562.77 399.17 C1553.72 397.25 1544.82 397.94 1535.69 398.88 Z M1705 440 C1704.67 441.65 1704.34 443.3 1704 445 C1704.66 444.67 1705.32 444.34 1706 444 C1705.67 442.68 1705.34 441.36 1705 440 Z M1226 452 C1226 452.66 1226 453.32 1226 454 C1225.42 454.23 1224.84 454.46 1224.24 454.7 C1215 460.07 1208.81 475.09 1206 485 C1204.8 493.61 1203.56 503.15 1208 511 C1211.93 515.93 1216.28 518.82 1222.53 519.79 C1236.5 520.98 1248.87 519.19 1260 510 C1260.49 508.51 1260.49 508.51 1261 507 C1261.99 506.67 1262.98 506.34 1264 506 C1265.58 503.92 1266.99 501.89 1268.38 499.69 C1268.97 498.75 1268.97 498.75 1269.58 497.79 C1277.18 485.5 1281.01 472.54 1279 458 C1277.12 452.44 1274.52 448.38 1270.19 444.44 C1254.29 437.27 1239.19 441.33 1226 452 Z M630 447 C633.93 446.43 633.93 446.43 637 444 C633.48 444 632.63 444.82 630 447 Z M605 480 C604.42 480.48 603.84 480.96 603.24 481.46 C596.53 487.03 590.1 492.73 584.02 498.98 C580.21 502.8 576.1 506.27 571.95 509.7 C571.3 510.23 570.66 510.76 570 511.31 C569.42 511.78 568.85 512.25 568.25 512.74 C566.77 513.94 566.77 513.94 567 516 C566.34 516 565.68 516 565 516 C563.6 517.31 563.6 517.31 562.12 519.12 C561.51 519.85 560.89 520.58 560.25 521.33 C559.14 522.65 559.14 522.65 558 524 C557.05 525.1 556.1 526.2 555.15 527.3 C544.22 537.85 544.22 537.85 538 550 C537.34 550 536.68 550 536 550 C534.25 552.03 532.62 554.06 531 556.19 C530.51 556.82 530.02 557.46 529.52 558.12 C528.5 559.44 527.48 560.76 526.47 562.08 C525.14 563.81 523.8 565.52 522.44 567.23 C516.65 574.55 511.53 582.17 506.54 590.05 C504.87 592.7 503.12 595.26 501.29 597.8 C497.44 602.94 497.44 602.94 496 609 C495.34 609 494.68 609 494 609 C496.04 592.61 500.95 576.57 506.32 561 C508.64 554.23 510.63 547.39 512.56 540.5 C515.02 531.85 517.9 524.01 522 516 C522.68 514.48 523.34 512.96 524 511.44 C527.87 502.74 531.96 494.61 537.68 486.96 C539.19 485.12 539.19 485.12 539 483 C539.66 483 540.32 483 541 483 C544.87 479.36 544.87 479.36 546.12 474.5 C542.62 466.71 535.67 462.09 528.06 458.69 C518.52 456.55 510.9 456.47 502.29 461.62 C497.34 464.92 497.34 464.92 493.4 469.29 C489.28 472.23 484.8 470.77 480 470 C479.04 469.85 478.08 469.7 477.08 469.54 C474.11 469.05 471.15 468.53 468.19 468 C459.45 466.5 450.87 465.23 442 465 C441.29 464.98 440.57 464.96 439.83 464.94 C377.82 463.38 316.72 482.61 261.62 509.88 C260.11 510.62 260.11 510.62 258.57 511.39 C251.34 515.07 244.66 519.38 238 524 C237.03 524.67 236.06 525.34 235.07 526.02 C227.79 531.09 221.41 536.9 215 543 C214.29 543.64 213.58 544.29 212.85 544.95 C196.35 560.45 186.17 581.34 185.09 604.02 C184.51 623.2 187.54 642.45 200.38 657.44 C210.17 667.56 222.33 671.1 236.25 671.44 C251.95 670.96 268.59 669.15 281.54 659.66 C283.55 657.38 283.97 656.05 284 653 C282.29 650.05 282.29 650.05 279.81 647.19 C271.11 636.3 268.9 626.69 270 613 C271.3 604.32 273.86 595.75 278 588 C278.46 587.13 278.46 587.13 278.93 586.23 C283.56 577.47 288.47 569.51 295 562 C295.9 560.9 296.79 559.79 297.69 558.69 C309.03 545.5 323.19 534.97 338 526 C339.41 525.11 339.41 525.11 340.85 524.21 C357.24 514.33 375.59 506.23 394 501 C394.93 500.71 395.86 500.42 396.82 500.12 C409.84 496.38 424.51 495.43 438 496 C438.33 496.99 438.66 497.98 439 499 C438.45 499.27 437.9 499.54 437.33 499.81 C434.75 501.13 432.25 502.54 429.75 504 C428.41 504.77 428.41 504.77 427.05 505.56 C426.37 506.04 425.7 506.51 425 507 C425 507.66 425 508.32 425 509 C424.45 509.24 423.9 509.48 423.34 509.73 C420.44 511.3 418.1 513.26 415.56 515.38 C410.02 519.99 410.02 519.99 407.15 522.16 C406.44 522.77 405.73 523.38 405 524 C405 524.66 405 525.32 405 526 C404.45 526.22 403.9 526.43 403.33 526.66 C400.19 528.46 398.17 530.82 395.75 533.5 C395.29 534 394.83 534.5 394.36 535.01 C391.77 537.6 391.77 537.6 391 541 C390.34 541 389.68 541 389 541 C389 541.66 389 542.32 389 543 C388.34 543 387.68 543 387 543 C385.33 544.92 383.79 546.85 382.25 548.88 C381.26 550.17 380.26 551.46 379.27 552.75 C378.74 553.44 378.21 554.13 377.66 554.84 C375.97 557.03 374.26 559.21 372.55 561.38 C365.43 570.39 358.66 579.54 352.28 589.09 C351.02 590.96 349.76 592.83 348.48 594.7 C343.45 602.13 338.69 609.71 334.03 617.38 C329.81 624.33 325.49 631.21 321 638 C320.29 639.07 320.29 639.07 319.57 640.16 C313.14 649.82 306.44 659.18 299.24 668.29 C295.11 673.52 291.17 678.87 287.31 684.31 C282.93 690.48 278.36 696.37 273.34 702.03 C271.27 704.38 270 705.99 269 709 C268.01 709.33 267.02 709.66 266 710 C263.29 712.38 263.29 712.38 261 715 C261 715.66 261 716.32 261 717 C260.34 717 259.68 717 259 717 C259 717.66 259 718.32 259 719 C258.46 719.22 257.91 719.43 257.35 719.65 C254.19 721.46 251.87 723.95 249.38 726.56 C244.24 731.88 244.24 731.88 242 733 C242 733.66 242 734.32 242 735 C241.41 735.27 240.82 735.55 240.22 735.83 C238.08 736.96 236.38 738.18 234.5 739.69 C222.98 748.39 210.78 754.59 196 753 C185.57 751.42 174.38 748.38 167.25 740.12 C166.14 738.58 166.14 738.58 165 737 C162.07 737.31 161.07 737.93 159 740.09 C152.32 749.79 147.86 760.36 146 772 C145.73 773.59 145.73 773.59 145.45 775.22 C142.52 799.86 146.74 827.82 162 848 C162.6 848.82 163.2 849.64 163.82 850.48 C166.95 854.63 170.19 858.45 174 862 C175.08 863.03 175.08 863.03 176.18 864.09 C190.95 877.92 205.94 882.66 226.02 882.09 C235.29 881.67 242.79 879.2 251 875 C251.81 874.6 252.63 874.2 253.46 873.79 C255.32 872.87 257.16 871.94 259 871 C259 870.34 259 869.68 259 869 C259.6 868.88 260.2 868.75 260.81 868.62 C263.26 868.05 263.26 868.05 266 866 C266 865.34 266 864.68 266 864 C267.65 863.34 269.3 862.68 271 862 C271 861.34 271 860.68 271 860 C271.55 859.77 272.11 859.54 272.68 859.31 C284.5 852.65 293.74 837.96 301.37 827.21 C303 825 303 825 305 823 C305 822.01 305 821.02 305 820 C305.66 820 306.32 820 307 820 C308.68 817.61 310.23 815.24 311.75 812.75 C312.2 812.01 312.66 811.28 313.13 810.52 C316.1 805.63 318.77 800.68 321.25 795.52 C323.68 790.64 326.31 785.89 328.94 781.12 C332.91 773.9 336.74 766.66 340.37 759.25 C341.8 756.41 343.29 753.61 344.82 750.82 C352.82 736.18 359.29 720.77 365.81 705.42 C368.03 700.21 370.33 695.06 372.75 689.94 C375.23 684.7 377.51 679.43 379.7 674.07 C381.16 670.62 382.76 667.25 384.38 663.88 C388.02 656.2 391.05 648.34 394.08 640.41 C395.69 636.2 397.34 632 399 627.81 C399.3 627.05 399.59 626.3 399.9 625.51 C401.87 620.55 404.06 615.7 406.34 610.87 C410.31 602.47 413.85 593.92 417.38 585.33 C420.6 577.48 423.98 569.8 427.91 562.28 C429.14 560.12 429.14 560.12 429 558 C429.99 558 430.98 558 432 558 C430.49 564.39 428.81 570.69 426.95 576.98 C421.74 594.65 418.04 612.64 414.49 630.7 C414.2 632.17 413.91 633.65 413.62 635.12 C413.48 635.86 413.34 636.59 413.19 637.34 C410.98 648.56 408.52 659.7 405.81 670.81 C405.57 671.82 405.57 671.82 405.32 672.84 C403.37 680.85 401.24 688.79 398.94 696.7 C398.08 699.72 397.27 702.75 396.5 705.79 C393.14 718.93 389.23 731.82 384.94 744.69 C384.69 745.44 384.44 746.19 384.18 746.97 C379.82 760.1 375.33 773.35 368.75 785.56 C368.38 786.26 368.01 786.96 367.63 787.68 C364.56 793.32 361 798.5 357.01 803.54 C354.6 806.56 354.6 806.56 354.11 810.27 C357.61 817.08 367.63 819.83 374.37 822.17 C389.82 826.93 407.11 828.32 422 821 C424.9 819.23 427.45 817.25 430 815 C430.58 814.5 431.17 814 431.77 813.48 C437.19 808.46 441.29 802.36 445 796 C445 795.34 445 794.68 445 794 C445.66 794 446.32 794 447 794 C447.24 793.48 447.49 792.95 447.74 792.41 C450.06 787.6 452.58 782.99 455.37 778.44 C461.71 768.03 466.66 757.14 471.63 746.03 C473.81 741.21 476.09 736.45 478.38 731.69 C480.84 726.54 483.3 721.4 485.62 716.19 C490.78 704.77 496.63 693.71 502.52 682.66 C503.47 680.87 504.42 679.08 505.37 677.29 C509.09 670.33 513.03 663.58 517.25 656.91 C518.93 654.12 520.37 651.32 521.75 648.38 C524.82 642.05 528.55 636.24 532.34 630.33 C535.64 625.18 538.81 619.98 541.88 614.69 C550.96 599.08 560.46 583.92 572 570 C572.87 568.92 573.74 567.83 574.61 566.74 C580.71 559.14 580.71 559.14 583 558 C582.5 558.83 582 559.66 581.49 560.52 C571.47 577.56 563.67 595.83 555.74 613.92 C553.71 618.5 551.53 622.98 549.25 627.44 C545.55 634.69 542.19 642.07 538.88 649.5 C538.38 650.59 537.89 651.68 537.39 652.81 C531.26 666.61 526.26 680.8 521.5 695.12 C521.26 695.84 521.02 696.55 520.78 697.29 C517.31 707.7 514.16 718.14 511.39 728.76 C509.89 734.51 508.19 740.19 506.5 745.88 C504.08 754.09 501.8 762.33 499.69 770.62 C499.45 771.56 499.2 772.49 498.95 773.46 C495.81 786.05 494.61 798.47 494.62 811.44 C494.63 812.12 494.63 812.8 494.63 813.49 C494.69 830.18 497.59 846.95 509.52 859.61 C518.73 868.24 530.95 869.01 543 869 C547.1 868.65 551 867.96 555 867 C555.81 866.82 556.63 866.63 557.47 866.44 C567.87 863.72 578.23 858.14 587 852 C587 851.34 587 850.68 587 850 C587.71 849.76 588.42 849.52 589.15 849.27 C592.45 847.8 594.8 845.94 597.56 843.62 C598.49 842.85 599.42 842.08 600.38 841.29 C602.69 839.27 604.87 837.2 607 835 C606.31 831.8 606.31 831.8 603.49 830.64 C602.44 830.18 601.39 829.72 600.31 829.25 C592.37 825.4 588.84 821.65 585.69 813.44 C575.01 782.38 589.4 743.96 598.18 714.03 C599.06 710.77 599.76 707.5 600.44 704.19 C605.43 680.27 614.53 657.12 622.54 634.1 C624.38 628.79 626.21 623.47 628.02 618.15 C628.55 616.6 629.08 615.05 629.61 613.49 C630.39 611.22 631.16 608.95 631.93 606.68 C635.43 596.38 639.13 586.17 643 576 C643.72 574.09 644.44 572.18 645.16 570.27 C648.24 562.14 651.32 554.02 654.73 546.02 C655.72 543.66 656.69 541.3 657.65 538.92 C660.64 531.5 663.73 524.21 667.41 517.09 C668.6 514.77 669.75 512.45 670.87 510.09 C676.62 498.09 683.15 488.32 693 479.19 C695.02 476.98 695.82 475.96 696 473 C694 465.86 688.56 460.12 682.32 456.41 C678.32 454.71 674.52 453.98 670.25 453.31 C669.48 453.18 668.72 453.05 667.93 452.92 C645.24 449.15 621.56 466.14 605 480 Z M326 468 C326.33 468.66 326.66 469.32 327 470 C327.66 469.34 328.32 468.68 329 468 C328.01 468 327.02 468 326 468 Z M702.77 495.44 C692.2 509.15 685.76 525.62 687 543 C688.19 549.16 690.46 553.67 695 558 C703.28 562.9 713.63 562.74 722.86 560.91 C735.88 557.15 745.9 549.72 753.25 538.31 C759.6 526.79 765.38 514.05 761.88 500.75 C759.23 493.29 755.53 487.53 749 483 C732.39 476.11 714.41 482.7 702.77 495.44 Z M282 484 C281.67 484.66 281.34 485.32 281 486 C282.32 486 283.64 486 285 486 C285 485.34 285 484.68 285 484 C284.01 484 283.02 484 282 484 Z M884 494 C882.09 495.91 882.09 495.91 880.25 498.44 C879.54 499.36 878.83 500.27 878.11 501.22 C877.41 502.14 876.72 503.05 876 504 C873.68 507.01 871.34 510.01 869 513 C868.36 513.83 867.72 514.66 867.05 515.52 C862.02 521.87 856.59 527.57 850.7 533.14 C847.51 536.22 845.24 538.61 844 543 C848.35 545.34 852.71 547.66 857.08 549.97 C858.74 550.86 860.39 551.77 862.05 552.68 C862.9 553.14 863.75 553.59 864.62 554.06 C865.36 554.47 866.09 554.87 866.85 555.29 C869.56 556.19 871.29 555.76 874 555 C874 554.34 874 553.68 874 553 C874.66 553 875.32 553 876 553 C878.08 548.26 880.01 543.7 880.81 538.56 C881.87 532.45 884.19 526.8 886.44 521.04 C889.36 513.45 892.07 506.13 890 498 C888.78 495.56 888.78 495.56 887 494 C886.01 494 885.02 494 884 494 Z M252 499 C252 499.66 252 500.32 252 501 C252.99 500.67 253.98 500.34 255 500 C254.01 499.67 253.02 499.34 252 499 Z M917 446 C917.16 447.15 917.16 447.15 917.32 448.32 C918.34 457.43 917.19 465.14 915 474 C914.73 475.15 914.46 476.29 914.19 477.48 C909.47 496.48 902.06 514.51 894.44 532.49 C890.24 542.39 886.24 552.25 883.17 562.57 C881.47 568.16 879 572.99 876 578 C873.99 576.09 872.72 574.53 871.25 572.12 C865.44 564.05 857.42 561.93 848 560 C827.82 556.8 810.97 563.37 794.69 574.88 C789.15 578.9 784.08 583.36 779.11 588.07 C777 590 777 590 775 591 C775 591.66 775 592.32 775 593 C774.01 593.33 773.02 593.66 772 594 C772 594.66 772 595.32 772 596 C771.34 596 770.68 596 770 596 C768.53 597.38 768.53 597.38 767 599.25 C766.39 599.97 765.78 600.69 765.15 601.43 C764.09 602.7 764.09 602.7 763 604 C762.11 605.04 761.21 606.09 760.32 607.13 C759.4 608.21 758.48 609.29 757.56 610.38 C757.11 610.9 756.66 611.42 756.2 611.96 C753.74 614.62 753.74 614.62 753 618 C752.34 618 751.68 618 751 618 C749.56 619.69 749.56 619.69 748.14 621.91 C747.3 623.15 747.3 623.15 746.45 624.41 C745.58 625.72 745.58 625.72 744.69 627.06 C743.55 628.76 742.4 630.46 741.26 632.16 C740.43 633.4 740.43 633.4 739.59 634.66 C738.18 636.74 736.73 638.78 735.26 640.81 C732.06 645.33 729.55 650.09 727 655 C726.68 655.61 726.36 656.21 726.03 656.83 C717.72 672.67 712.41 688.8 708.94 706.31 C708.02 709.91 707.75 710.81 705 713 C702.06 713.44 702.06 713.44 699 713 C696.44 710.99 695.17 709.77 694.47 706.55 C694.69 686.7 703.39 668.3 711.85 650.73 C714.84 644.46 717.57 638.09 720.25 631.69 C720.66 630.71 721.07 629.73 721.5 628.72 C726.74 616.09 731.59 603.88 729 590 C727.32 586.64 725.38 585.5 722 584 C720.64 583.32 720.64 583.32 719.25 582.63 C702.94 575.13 683.38 575.26 666 579 C663.14 580.45 663.14 580.45 661 582 C661.25 582.93 661.25 582.93 661.5 583.88 C664.26 601.11 655.41 616.75 648.44 632 C634.71 662.07 622.52 692.65 612 724 C611.57 725.27 611.57 725.27 611.13 726.57 C603.89 748.04 599.89 769.48 605 792 C605.24 793.1 605.24 793.1 605.48 794.21 C607.55 801.27 613.14 807.31 619.09 811.45 C631.57 818.07 649.69 818.2 663.03 814.18 C671.71 810.73 680.47 806.58 688 801 C688 800.34 688 799.68 688 799 C688.84 798.63 688.84 798.63 689.69 798.25 C692.42 796.77 694.68 795.07 697 793 C697 792.34 697 791.68 697 791 C697.58 790.73 698.17 790.47 698.77 790.2 C701.06 788.97 702.8 787.6 704.75 785.88 C705.67 785.07 705.67 785.07 706.61 784.24 C707.07 783.83 707.53 783.42 708 783 C708.38 783.59 708.75 784.18 709.14 784.79 C712.08 789.34 714.94 793.36 719 797 C719.72 797.7 720.44 798.4 721.19 799.12 C731.42 805.94 745.26 805.93 757 804 C768.8 801 780.19 794.33 789 786 C789 785.34 789 784.68 789 784 C789.96 783.6 789.96 783.6 790.94 783.19 C793.33 782.11 793.33 782.11 794 779 C794.66 779 795.32 779 796 779 C797.84 776.74 799.56 774.49 801.25 772.12 C801.75 771.44 802.24 770.76 802.75 770.06 C806 765.54 808.99 760.93 811.68 756.05 C813.19 753.7 814.97 751.91 817 750 C816.9 750.97 816.81 751.93 816.71 752.93 C815.81 763.56 815.57 773.91 822 783 C830 791.35 838.44 795.14 850 796 C851.28 796.1 851.28 796.1 852.58 796.2 C869.19 796.86 884.6 790.91 898.28 781.82 C905.63 776.95 905.63 776.95 909.66 777.09 C912.54 777.87 915.23 778.89 918 780 C934.33 785.44 954.92 787.66 971.81 783.27 C974.18 782.2 974.18 782.2 974.82 779.83 C975.04 776.43 974.98 773.09 974.88 769.69 C974.72 754.78 978.76 742.06 984.11 728.34 C985.49 724.71 986.74 721.04 988 717.38 C992.3 705.07 997.24 693.17 1003.2 681.57 C1005.17 677.7 1006.99 673.76 1008.81 669.81 C1012.09 662.77 1015.63 655.89 1019.28 649.03 C1021.98 643.95 1024.59 638.84 1027.12 633.69 C1035.15 617.51 1044.51 601.97 1056 588 C1056.59 587.25 1057.17 586.49 1057.77 585.71 C1062.15 580.3 1062.15 580.3 1066.19 578.88 C1070.93 579.09 1070.93 579.09 1073 581 C1075.58 588.89 1071.99 595.66 1069 603 C1068.44 604.41 1067.88 605.82 1067.32 607.23 C1063.08 617.75 1058.4 628.04 1053.46 638.25 C1047.6 650.37 1042.01 662.51 1037 675 C1036.52 676.18 1036.05 677.37 1035.56 678.58 C1034.21 681.94 1032.88 685.29 1031.55 688.65 C1031.03 689.98 1030.5 691.31 1029.97 692.63 C1024.65 705.97 1020.42 719.52 1020 734 C1019.97 734.66 1019.95 735.32 1019.92 736.01 C1019.45 748.96 1020.31 759.73 1029 770 C1037.66 778.36 1048.2 781.1 1060 781 C1084.96 779.6 1103.7 768.07 1120.5 750.31 C1123 748 1123 748 1127 748 C1128.85 750.62 1128.85 750.62 1130.62 754 C1131.7 756.03 1132.81 758.04 1134 760 C1134.66 760 1135.32 760 1136 760 C1136.33 760.99 1136.66 761.98 1137 763 C1138.61 764.39 1138.61 764.39 1140.62 765.56 C1141.28 765.98 1141.93 766.39 1142.6 766.82 C1153.26 772.08 1167.83 771.41 1179.03 768.1 C1185.24 765.81 1191.12 763.01 1197 760 C1197.67 759.67 1198.33 759.33 1199.02 758.99 C1208.33 754.3 1215.91 748.94 1223.33 741.6 C1229.08 736 1229.08 736 1233 736 C1233.34 736.61 1233.68 737.23 1234.02 737.86 C1234.69 739.08 1234.69 739.08 1235.38 740.31 C1235.82 741.11 1236.26 741.91 1236.71 742.74 C1237.74 744.54 1238.85 746.28 1240 748 C1240.66 748 1241.32 748 1242 748 C1242 748.66 1242 749.32 1242 750 C1253.01 758.7 1266.3 761.21 1280 760 C1294.08 757.79 1304.21 749.79 1314 740 C1314.77 739.23 1315.53 738.47 1316.32 737.68 C1320.67 733.07 1323.72 728.28 1326.62 722.66 C1327.91 720.17 1329.28 717.77 1330.75 715.38 C1331.33 714.43 1331.33 714.43 1331.92 713.46 C1333 712 1333 712 1335 711 C1328.76 737.38 1320.56 763.05 1296.56 778.75 C1282.67 787.1 1270.6 791.18 1254.09 788.54 C1247.12 786.72 1241.37 783.55 1237.31 777.48 C1234.5 772.44 1232.11 767.23 1229.96 761.88 C1228.91 759.83 1227.7 758.53 1226 757 C1222.28 760.3 1219.99 764.09 1217.69 768.44 C1217.3 769.17 1216.91 769.9 1216.51 770.66 C1208.74 785.91 1203.59 802.66 1203.69 819.81 C1203.69 820.88 1203.7 821.94 1203.7 823.04 C1203.82 830.41 1204.34 837.07 1207 844 C1207.67 845.77 1207.67 845.77 1208.36 847.57 C1214.04 861.88 1221.79 869.95 1235.88 876.44 C1256.96 884.86 1280.8 882.39 1301.25 873.69 C1313.92 868.03 1325.44 860.11 1335 850 C1335.74 849.28 1336.49 848.56 1337.25 847.81 C1338.61 846.42 1338.61 846.42 1340 845 C1340.66 844.34 1341.32 843.67 1342 842.99 C1348.65 836 1353.4 828.41 1358 820 C1358.32 819.41 1358.65 818.82 1358.98 818.21 C1373.28 791.68 1384.11 762.42 1393.92 733.94 C1395.82 728.41 1397.9 722.96 1400 717.5 C1402.33 711.42 1404.62 705.34 1406.75 699.19 C1409.69 690.75 1412.8 682.37 1415.94 674 C1416.2 673.29 1416.47 672.59 1416.74 671.86 C1419.87 663.52 1423.08 655.23 1426.56 647.03 C1429.36 640.33 1431.66 633.47 1434.02 626.6 C1438.3 614.15 1442.96 601.97 1448.61 590.07 C1450.02 586.96 1451.24 583.82 1452.44 580.62 C1454.2 575.92 1456.19 571.39 1458.38 566.88 C1467.66 547.72 1467.66 547.72 1471 527 C1468.86 521.7 1465.14 519.19 1460 517 C1451.45 513.92 1443.18 512.82 1434.12 512.88 C1433.33 512.88 1432.53 512.88 1431.7 512.89 C1422.19 512.98 1413.08 513.92 1404 517 C1402.2 520.61 1402.63 525.06 1402.48 529.06 C1402.3 532.82 1402.07 535.8 1400 539 C1397 538 1397 538 1395.68 535.49 C1395.23 534.44 1394.78 533.39 1394.31 532.31 C1390.19 523.78 1384.47 519.95 1375.68 516.75 C1357.76 511.72 1340.87 517.85 1325 526 C1320.79 528.38 1316.89 531.13 1313 534 C1311.91 534.69 1310.81 535.39 1309.68 536.11 C1308.8 536.73 1307.91 537.36 1307 538 C1307 538.66 1307 539.32 1307 540 C1306.32 540.21 1305.64 540.41 1304.94 540.62 C1301.08 542.43 1297.92 544.9 1295 548 C1295 548.66 1295 549.32 1295 550 C1294.36 550.27 1293.72 550.54 1293.06 550.81 C1290.67 551.89 1290.67 551.89 1290 555 C1288.67 555.68 1287.34 556.34 1286 557 C1279.04 563.67 1273.24 571.62 1267.36 579.25 C1266.07 580.91 1264.76 582.55 1263.43 584.19 C1246.73 605.13 1238.11 628.91 1229.95 654.18 C1226 666.2 1226 666.2 1223.12 668.5 C1220.33 669.16 1218.7 668.97 1216 668 C1213.86 666.23 1213.09 664.89 1212.8 662.12 C1212.74 656.25 1213.66 651.12 1215.31 645.5 C1215.7 644.15 1215.7 644.15 1216.1 642.78 C1219.68 631.09 1224.87 620.08 1230 609 C1233.01 602.44 1236.01 595.87 1238.97 589.29 C1239.85 587.32 1240.76 585.37 1241.66 583.41 C1244.38 577.12 1245.67 571.01 1246.5 564.25 C1246.65 563.08 1246.65 563.08 1246.81 561.88 C1247.37 556.09 1246.49 551.28 1244 546 C1237.37 537.97 1227.98 535.39 1218 534 C1198.27 532.3 1198.27 532.3 1180 538 C1180.11 538.94 1180.21 539.89 1180.32 540.86 C1180.44 542.14 1180.56 543.43 1180.69 544.75 C1180.82 546 1180.94 547.26 1181.07 548.55 C1181.36 558.92 1176.8 568.27 1172.25 577.31 C1171.17 579.52 1170.08 581.72 1169 583.93 C1168.48 584.98 1167.96 586.03 1167.43 587.11 C1157.69 606.86 1149.01 627.05 1141.4 647.71 C1139 654.16 1136.3 660.49 1133.54 666.79 C1133.21 667.56 1132.88 668.32 1132.54 669.11 C1132.24 669.79 1131.95 670.47 1131.64 671.17 C1130.84 673.15 1130.84 673.15 1131 676 C1130.34 676 1129.68 676 1129 676 C1129 676.66 1129 677.32 1129 678 C1122.65 679.34 1122.65 679.34 1119.62 677.75 C1117.23 675.17 1117.01 673.18 1116.85 669.7 C1117.57 652.06 1128.5 634 1135.97 618.39 C1138.55 613 1140.88 607.59 1143 602 C1143.58 600.53 1144.17 599.05 1144.75 597.58 C1145.4 595.95 1146.04 594.32 1146.69 592.69 C1147 591.91 1147.31 591.13 1147.63 590.33 C1152.04 579.07 1152.59 566.66 1149 555 C1147.69 551.97 1147.69 551.97 1146 550 C1145.34 550 1144.68 550 1144 550 C1143.75 549.39 1143.5 548.79 1143.24 548.16 C1140.22 542.9 1133.17 540.84 1127.62 539.19 C1108.48 534.99 1088.54 538.7 1071.91 548.89 C1059.24 557.43 1059.24 557.43 1048.51 568.2 C1044.67 572.78 1044.67 572.78 1041 574 C1040.92 572.8 1040.84 571.61 1040.75 570.38 C1040.19 566.05 1038.89 563.35 1036 560 C1027.7 554.59 1017.83 554.67 1008.25 554.75 C1007.07 554.76 1005.9 554.76 1004.69 554.77 C997.12 554.85 989.6 555.16 982.06 555.81 C981.2 555.88 980.34 555.95 979.45 556.02 C976.08 556.37 973.48 556.77 970.41 558.25 C968.77 559.94 968.77 559.94 968.86 562.38 C969.09 563.74 969.09 563.74 969.31 565.12 C971.12 579.85 964.99 592.41 958.32 605.22 C953.28 615.1 949.4 625.52 945.29 635.81 C943.69 639.76 942.05 643.7 940.4 647.63 C939.03 650.93 937.67 654.24 936.31 657.55 C935 660.72 933.69 663.89 932.38 667.07 C931.7 668.7 931.03 670.34 930.36 671.98 C929.38 674.37 928.39 676.76 927.4 679.16 C927.1 679.89 926.8 680.61 926.5 681.37 C923.59 688.35 923.59 688.35 921 691 C917.5 691.5 917.5 691.5 914 691 C911.28 688.21 910.55 686.11 910.5 682.25 C910.8 671.63 915.3 661.09 919.5 651.46 C921.25 647.43 922.95 643.38 924.64 639.34 C927.45 632.65 930.29 625.97 933.15 619.31 C939.85 603.67 946.53 588.05 952.53 572.12 C955.44 564.4 958.54 556.76 961.69 549.12 C965.55 539.74 969.12 530.32 972.38 520.71 C973.76 516.64 975.25 512.63 976.77 508.62 C986.28 485.51 986.28 485.51 985.88 461.44 C985.26 460.3 984.64 459.17 984 458 C983.74 457.39 983.48 456.78 983.22 456.15 C980.67 450.61 976.56 448.19 971 446 C955.28 441.38 932.44 440.51 917 446 Z M216 523 C215.67 523.66 215.34 524.32 215 525 C215.99 524.67 216.98 524.34 218 524 C217.34 523.67 216.68 523.34 216 523 Z M201 537 C200.67 537.99 200.34 538.98 200 540 C200.99 539.67 201.98 539.34 203 539 C203 538.34 203 537.68 203 537 C202.34 537 201.68 537 201 537 Z M1890 538 C1890.43 539.92 1890.43 539.92 1890.88 541.88 C1891.15 543.13 1891.15 543.13 1891.43 544.41 C1891.78 545.99 1892.14 547.56 1892.54 549.12 C1900.72 583.62 1891.77 627.53 1879.43 660.08 C1878.34 662.96 1877.45 665.85 1876.6 668.81 C1865.65 705.89 1840.43 740.35 1814 768 C1813.39 768.64 1812.78 769.27 1812.16 769.93 C1794.15 788.67 1774.02 801 1747.31 802.16 C1743.46 802.2 1739.61 802.18 1735.75 802.12 C1734.41 802.11 1733.07 802.11 1731.72 802.1 C1728.48 802.07 1725.24 802.04 1722 802 C1722.85 804.28 1722.85 804.28 1725.56 804.88 C1726.7 805.25 1727.83 805.62 1729 806 C1735.24 808.67 1740.43 811.9 1744.81 817.19 C1750.84 822.19 1760.6 821.69 1768 821 C1789.35 817.44 1812.84 805.49 1828 790 C1829.2 788.81 1830.39 787.63 1831.59 786.44 C1832.9 785.15 1834.2 783.86 1835.5 782.56 C1836.15 781.92 1836.8 781.28 1837.47 780.62 C1841.21 776.9 1844.79 773.19 1848 769 C1848 768.34 1848 767.68 1848 767 C1848.66 767 1849.32 767 1850 767 C1851.89 764.79 1853.64 762.58 1855.38 760.25 C1855.9 759.55 1856.43 758.84 1856.97 758.12 C1862.83 750.11 1867.86 741.61 1872.82 733.02 C1873.8 731.35 1874.81 729.69 1875.84 728.04 C1877.16 726.1 1877.16 726.1 1877 724 C1877.66 724 1878.32 724 1879 724 C1884.14 716.63 1887.87 708.38 1891.31 700.12 C1892 698.48 1892 698.48 1892.71 696.8 C1896.32 688.02 1899.5 679.13 1902.5 670.12 C1902.91 668.9 1903.32 667.67 1903.74 666.4 C1916.34 627.71 1919.6 591.64 1901.56 554.69 C1898.55 548.78 1895.2 543.15 1891 538 C1890.67 538 1890.34 538 1890 538 Z M199 540 C199 543 199 543 199 543 Z M196 543 C196.33 543.66 196.66 544.32 197 545 C197.33 544.34 197.66 543.68 198 543 C197.34 543 196.68 543 196 543 Z M1560 757 C1551.74 783.6 1551.74 783.6 1556 810 C1555.88 812.02 1555.88 812.02 1555 814 C1547.24 819.51 1537.19 820.6 1528 822 C1526.14 822.31 1526.14 822.31 1524.24 822.62 C1496.14 826.93 1496.14 826.93 1486 820 C1481.22 815.61 1477.39 810.51 1474 805 C1470.72 807.65 1469.56 811.1 1468.12 814.94 C1464.56 824.21 1460.7 833.34 1456.84 842.5 C1456.01 844.48 1455.18 846.46 1454.34 848.44 C1453.78 849.77 1453.22 851.1 1452.66 852.43 C1449.79 859.23 1446.96 866.03 1444.34 872.93 C1442.43 877.96 1440.34 882.84 1438 887.69 C1437.66 888.4 1437.32 889.12 1436.97 889.85 C1434.38 895.27 1431.73 900.65 1429 906 C1432.63 908.97 1436.29 910.36 1440.66 911.94 C1443 913 1443 913 1444.62 914.62 C1446.03 916.35 1446.03 916.35 1449 916 C1449.4 915.04 1449.8 914.08 1450.21 913.1 C1453.26 905.93 1456.48 899 1460.25 892.19 C1464.31 884.76 1467.62 877.08 1470.81 869.25 C1471.27 868.14 1471.72 867.03 1472.19 865.88 C1474.84 859.29 1477.09 852.7 1479.01 845.87 C1480.02 842.95 1481.32 840.58 1483 838 C1483.59 838.14 1484.18 838.28 1484.79 838.43 C1492.97 840.17 1500.92 840.31 1509.23 840.26 C1511.56 840.25 1513.89 840.26 1516.22 840.27 C1524.03 840.28 1531.39 839.9 1539 838 C1545.9 836.81 1552.8 835.86 1559.77 835.22 C1562.86 834.92 1565.92 834.47 1569 834 C1568.54 829.83 1568 825.92 1566.88 821.88 C1564.12 809.91 1567.73 799.55 1573 789 C1573 788.34 1573 787.68 1573 787 C1573.6 786.71 1574.2 786.42 1574.81 786.12 C1577.19 784.95 1577.19 784.95 1580 783 C1579.36 782.2 1579.36 782.2 1578.71 781.38 C1572.59 773.6 1566.74 765.72 1562 757 C1561.34 757 1560.68 757 1560 757 Z M1699 783 C1698.37 783.71 1697.75 784.42 1697.1 785.15 C1696.28 786.07 1695.47 786.99 1694.62 787.94 C1693.81 788.85 1693 789.77 1692.16 790.71 C1690 793 1690 793 1688 794 C1688 794.66 1688 795.32 1688 796 C1687.26 796.27 1686.52 796.55 1685.75 796.83 C1683.2 797.91 1681.24 799.09 1679 800.69 C1660.92 812.9 1643.71 818.21 1622 816 C1622.33 817.32 1622.66 818.64 1623 820 C1623.66 820 1624.32 820 1625 820 C1625.4 820.96 1625.4 820.96 1625.81 821.94 C1626.89 824.33 1626.89 824.33 1630 825 C1630 825.66 1630 826.32 1630 827 C1642.72 834.83 1654.3 833.96 1668.38 830.91 C1672.95 829.76 1676.84 828.18 1681 826 C1681.92 825.58 1682.84 825.16 1683.79 824.73 C1691.55 821.1 1698.58 816.69 1705 811 C1705 810.34 1705 809.68 1705 809 C1705.54 808.75 1706.07 808.5 1706.62 808.25 C1709.16 806.99 1709.16 806.99 1711.88 804.94 C1715.07 802.95 1717.29 802.35 1721 802 C1718.55 799.35 1715.96 797.18 1713.06 795.06 C1709.73 792.62 1706.89 789.96 1704 787 C1702.34 785.65 1700.68 784.32 1699 783 Z M1047 806 C1038.05 818.62 1035.07 839.23 1036.27 854.37 C1036.97 858.29 1037.77 860.65 1040 864 C1040 865.32 1040 866.64 1040 868 C1029.42 874.14 1017.77 875.28 1005.77 875.81 C1002.46 875.98 999.23 876.3 995.94 876.69 C991.49 877.11 988.26 876.5 984 875 C981.64 874.56 979.29 874.14 976.92 873.76 C974.33 872.73 974.1 871.5 973 869 C971.52 867.28 971.52 867.28 969.88 865.75 C968.93 864.84 967.98 863.93 967 863 C963.93 864.46 961.1 866.14 958.25 868 C957.05 868.77 957.05 868.77 955.83 869.56 C955.22 870.04 954.62 870.51 954 871 C954 871.66 954 872.32 954 873 C953.27 873.28 952.54 873.56 951.79 873.85 C948.44 875.23 945.29 876.89 942.09 878.59 C941.07 879.05 940.05 879.52 939 880 C938.29 880.35 937.57 880.69 936.83 881.05 C928.07 884.81 919.66 884.46 910.31 884.25 C908.72 884.23 907.14 884.21 905.55 884.2 C901.7 884.15 897.85 884.08 894 884 C894.85 888.36 897.02 890.73 900 894 C904.2 896.8 906.12 895.87 911 895 C911.33 894.67 911.66 894.34 912 894 C913.66 893.83 915.33 893.72 917 893.64 C933.3 892.69 947.99 891.1 962 882 C962.62 881.63 963.23 881.25 963.87 880.87 C965.73 879.74 965.73 879.74 968 878 C968 877.34 968 876.68 968 876 C972.79 875.65 975.03 876.25 978.81 879.19 C986.68 885.45 986.68 885.45 996 888 C996 888.66 996 889.32 996 890 C1004.82 895.72 1016.12 892.75 1025.88 891.12 C1028.06 890.77 1030.24 890.42 1032.43 890.07 C1033.5 889.9 1034.57 889.72 1035.67 889.54 C1041.11 888.66 1046.55 887.83 1052 887 C1053.14 883.57 1052.84 882.89 1051.62 879.62 C1045.91 864.07 1050.29 850.06 1056.75 835.56 C1058.81 831.19 1058.81 831.19 1060 830 C1060.5 825.65 1059.43 823.67 1056.81 820.25 C1053.44 815.69 1050.63 811.02 1048 806 C1047.67 806 1047.34 806 1047 806 Z M1093 863 C1100.45 870.69 1109.31 878.49 1120 881 C1120.66 880.67 1121.32 880.34 1122 880 C1120.98 879.01 1120.98 879.01 1119.94 878 C1118.28 876.39 1116.87 874.82 1115.5 872.96 C1112.19 868.58 1109.94 866.56 1104.44 865.62 C1102.63 865.42 1100.81 865.21 1099 865 C1096.98 864.38 1094.97 863.75 1093 863 Z M389 885 C388.46 885.95 387.93 886.9 387.38 887.88 C385.67 890.86 383.91 893.81 382.12 896.75 C379.4 901.27 376.88 905.88 374.38 910.52 C373.25 912.55 372.07 914.47 370.75 916.38 C369.09 918.86 367.99 921.19 367 924 C366.34 924 365.68 924 365 924 C363.79 925.35 363.79 925.35 362.56 927.19 C354.24 938.62 344.32 951.81 332 959 C330.89 959.7 330.89 959.7 329.77 960.42 C312.16 971.47 291.39 973.96 271 970 C264.37 968.17 258.37 964.88 252.34 961.64 C249.17 959.78 249.17 959.78 246 960 C247.28 961.71 248.62 963.37 250 965 C250.66 965 251.32 965 252 965 C252 965.66 252 966.32 252 967 C267.04 981.48 284.49 987.48 304.9 987.21 C316.97 986.85 328.11 984.32 339 979 C339.94 978.55 340.88 978.1 341.85 977.64 C345.39 975.91 348.72 974.19 352 972 C352 971.34 352 970.68 352 970 C352.76 969.88 353.53 969.75 354.31 969.62 C357.2 969.12 357.2 969.12 360 967 C360 966.34 360 965.68 360 965 C360.66 965 361.32 965 362 965 C363.67 962.87 365.22 960.73 366.75 958.5 C367.65 957.21 368.55 955.92 369.45 954.63 C369.89 954 370.33 953.38 370.78 952.73 C372.29 950.59 373.89 948.51 375.5 946.44 C377.54 943.76 378.98 941.25 380 938 C380.66 938 381.32 938 382 938 C383.16 936.47 383.16 936.47 384.25 934.44 C384.69 933.67 385.13 932.9 385.58 932.11 C386.28 930.85 386.28 930.85 387 929.56 C387.98 927.82 388.96 926.08 389.95 924.34 C390.45 923.45 390.95 922.56 391.47 921.65 C392.94 919.11 394.46 916.61 396.02 914.13 C396.49 913.37 396.96 912.61 397.44 911.83 C398.34 910.38 399.25 908.95 400.18 907.52 C402.55 903.74 402.55 903.74 402.54 899.42 C400.63 896.43 398.68 893.53 396.56 890.69 C396.17 890.14 395.77 889.59 395.37 889.02 C394.08 887.25 394.08 887.25 392 885 C391.01 885 390.02 885 389 885 Z M764.48 860.28 C762.06 860.98 759.64 861.6 757.19 862.21 C724.07 870.84 694.6 890.03 667.47 910.23 C664.22 912.65 660.98 915.05 657.59 917.27 C655.05 918.97 653.11 920.81 651 923 C650.01 923.5 650.01 923.5 649 924 C649 924.66 649 925.32 649 926 C648.45 926.25 647.9 926.5 647.33 926.75 C644.55 928.24 642.22 930.04 639.75 932 C638.86 932.7 637.97 933.4 637.05 934.12 C636.37 934.74 635.7 935.36 635 936 C635 936.66 635 937.32 635 938 C634.34 938 633.68 938 633 938 C631.49 939.53 631.49 939.53 630 941.44 C627.2 944.9 627.2 944.9 625 946 C625 946.66 625 947.32 625 948 C624.34 948 623.68 948 623 948 C621.46 949.7 619.99 951.46 618.56 953.25 C617.78 954.22 617 955.2 616.19 956.2 C615.47 957.13 614.75 958.05 614 959 C613.41 959.74 612.82 960.47 612.21 961.23 C610.81 962.92 610.81 962.92 611 965 C610.34 965 609.68 965 609 965 C607.55 966.84 606.19 968.75 604.88 970.69 C604.48 971.27 604.08 971.85 603.67 972.45 C599.04 979.32 594.66 986.37 590.53 993.56 C587.45 998.82 587.45 998.82 585.06 999.76 C582.06 1000.11 579.78 999.07 577 998 C577 997.34 577 996.68 577 996 C576.34 996 575.68 996 575 996 C575 995.34 575 994.68 575 994 C574.34 994 573.68 994 573 994 C572.71 993.42 572.43 992.85 572.13 992.25 C571.41 990.82 570.69 989.39 569.96 987.96 C569.63 987.3 569.29 986.63 568.94 985.94 C568.6 985.27 568.25 984.59 567.9 983.9 C563.58 974.78 565.54 961.83 568.05 952.42 C569 950 569 950 570.61 947.86 C572.3 945.99 572.3 945.99 572 943 C572.66 943 573.32 943 574 943 C575.34 941.01 576.68 939.01 578 937 C579.62 935.29 581.3 933.63 583 932 C583.67 931.29 584.35 930.59 585.04 929.86 C596.29 918.17 609.18 913.14 625 910 C624.36 904.43 621.8 902.39 617.63 898.92 C599.63 885.78 572.28 885.24 551 888 C539.9 889.95 529.41 893.77 519 898 C517.72 898.51 517.72 898.51 516.41 899.04 C501.18 904.75 501.18 904.75 488 914 C488 914.66 488 915.32 488 916 C487.41 916.26 486.83 916.52 486.23 916.78 C473.77 923.6 465.8 943.12 461.9 956.1 C456.05 979.68 458.48 1005.74 471.06 1026.76 C474.94 1033.19 474.94 1033.19 481 1037 C481.27 1037.59 481.55 1038.18 481.83 1038.79 C486.49 1047.58 501.27 1052.76 510 1056 C510.85 1056.32 511.7 1056.63 512.58 1056.96 C526.1 1061.48 540.88 1061.46 555 1062 C554.4 1065.56 553.44 1068.54 551.93 1071.82 C551.3 1073.19 551.3 1073.19 550.66 1074.6 C549.99 1076.07 549.99 1076.07 549.31 1077.56 C539.84 1098.93 533.02 1122.54 532.76 1146.07 C532.75 1146.83 532.74 1147.58 532.73 1148.36 C532.47 1173.76 533.76 1198.72 542 1223 C542.38 1224.14 542.76 1225.28 543.15 1226.45 C553.42 1255.01 574.3 1279 601.71 1292.08 C636.62 1308.1 675.86 1308.36 712 1296 C712.71 1295.76 713.42 1295.52 714.15 1295.27 C732.74 1288.78 748.02 1277.55 763 1265 C763.68 1264.43 764.37 1263.86 765.07 1263.27 C768.55 1260.34 771.92 1257.36 775 1254 C775 1253.34 775 1252.68 775 1252 C775.66 1252 776.32 1252 777 1252 C777 1251.34 777 1250.68 777 1250 C777.99 1249.67 778.98 1249.34 780 1249 C780 1248.34 780 1247.68 780 1247 C780.66 1247 781.32 1247 782 1247 C782 1246.34 782 1245.68 782 1245 C782.66 1245 783.32 1245 784 1245 C787.64 1241.52 787.64 1241.52 789 1237 C789.66 1237 790.32 1237 791 1237 C793.57 1234.19 795.75 1231.06 798 1228 C798.56 1227.25 799.12 1226.51 799.7 1225.74 C803.98 1219.86 807.51 1213.69 810.89 1207.27 C813.68 1202.11 813.68 1202.11 817 1201 C817.04 1202.06 817.07 1203.13 817.11 1204.23 C817.81 1220.82 819.6 1237.56 832.44 1249.56 C844.38 1259.11 858.16 1259.9 873 1259 C895 1256.41 914.01 1241.32 928 1225 C930.95 1221.06 933.58 1216.95 936.14 1212.75 C936.76 1211.85 937.37 1210.94 938 1210 C938.66 1210 939.32 1210 940 1210 C940.46 1210.94 940.92 1211.88 941.39 1212.85 C942.01 1214.11 942.63 1215.37 943.25 1216.62 C943.55 1217.24 943.85 1217.86 944.16 1218.5 C946.17 1222.56 948.29 1226.36 951 1230 C951.66 1230 952.32 1230 953 1230 C953.27 1230.64 953.54 1231.28 953.81 1231.94 C954.89 1234.33 954.89 1234.33 958 1235 C958 1235.66 958 1236.32 958 1237 C967.68 1243.33 978.49 1245.93 990 1245 C991.15 1244.91 992.31 1244.81 993.5 1244.72 C1013.67 1242.57 1031.5 1232.6 1045.68 1218.29 C1048 1216 1048 1216 1050 1215 C1050.5 1215.44 1050.99 1215.87 1051.5 1216.32 C1052.93 1217.57 1054.36 1218.82 1055.79 1220.06 C1057.14 1221.25 1058.48 1222.44 1059.81 1223.66 C1066.79 1229.96 1073.74 1232.68 1083 1234 C1083.9 1234.15 1084.81 1234.29 1085.74 1234.45 C1105.59 1236.97 1124.02 1228.36 1139.5 1216.69 C1149.13 1209.18 1149.13 1209.18 1157 1200 C1157.66 1200 1158.32 1200 1159 1200 C1160.37 1201.57 1160.37 1201.57 1161.88 1203.69 C1162.41 1204.42 1162.94 1205.15 1163.5 1205.91 C1163.99 1206.6 1164.49 1207.29 1165 1208 C1171.37 1216.83 1180.44 1220.95 1191 1223 C1193.76 1223.28 1196.48 1223.33 1199.25 1223.31 C1199.99 1223.31 1200.73 1223.3 1201.49 1223.3 C1207.97 1223.17 1213.85 1222.07 1220 1220 C1220.83 1219.73 1221.65 1219.47 1222.5 1219.19 C1239.33 1213.12 1254.61 1200.47 1266.31 1187.19 C1267.01 1186.4 1267.71 1185.61 1268.43 1184.79 C1268.95 1184.2 1269.46 1183.61 1270 1183 C1274.32 1183.84 1275.28 1185.53 1278 1189 C1295.8 1206.39 1318.08 1213.1 1342.5 1213.03 C1358.63 1212.71 1373.36 1209.99 1388 1203 C1388.63 1202.7 1389.27 1202.4 1389.92 1202.09 C1397.32 1198.57 1404.52 1194.99 1411.23 1190.25 C1413 1189 1413 1189 1416.06 1187.25 C1416.7 1186.84 1417.34 1186.42 1418 1186 C1418 1185.34 1418 1184.68 1418 1184 C1418.54 1183.77 1419.07 1183.55 1419.62 1183.31 C1425.25 1180.2 1429.21 1175.77 1433.32 1170.93 C1434.8 1169.24 1436.31 1167.67 1437.94 1166.12 C1440.23 1164.25 1440.23 1164.25 1440 1162 C1440.66 1162 1441.32 1162 1442 1162 C1443.41 1160.03 1444.71 1158.05 1446 1156 C1447.01 1154.49 1447.01 1154.49 1448.04 1152.95 C1458.71 1136.72 1466.74 1120.36 1471.91 1101.58 C1473.22 1097.29 1474.86 1093.2 1476.56 1089.05 C1478.82 1083.52 1480.92 1077.94 1482.94 1072.31 C1483.26 1071.45 1483.58 1070.59 1483.9 1069.7 C1484.19 1068.89 1484.48 1068.08 1484.78 1067.24 C1485.04 1066.52 1485.3 1065.8 1485.57 1065.05 C1486.07 1062.68 1485.81 1061.27 1485 1059 C1483.15 1057.15 1480.23 1057.78 1477.75 1057.75 C1476.61 1057.72 1475.47 1057.7 1474.3 1057.67 C1468.6 1058.24 1465.78 1060.9 1462.2 1065.24 C1461.58 1066.02 1461.58 1066.02 1460.94 1066.81 C1460.1 1067.83 1459.26 1068.85 1458.4 1069.89 C1456.12 1072.85 1454.06 1075.89 1452 1079 C1451.34 1079.66 1450.68 1080.32 1450 1081 C1447.38 1080.62 1447.38 1080.62 1445 1080 C1429.62 1038.49 1429.58 996.91 1445 955.63 C1447.76 948.19 1449.81 941.87 1448 934 C1445 929 1441.1 926.87 1435.56 925.31 C1427.64 924.35 1421.23 925.18 1414.54 929.64 C1402.92 938.77 1392.63 949.83 1383 961 C1381.36 962.86 1379.71 964.71 1378.07 966.55 C1376.8 967.97 1376.8 967.97 1377 970 C1376.34 970 1375.68 970 1375 970 C1373.52 971.61 1372.12 973.29 1370.75 975 C1369.94 976.01 1369.13 977.03 1368.29 978.07 C1366.05 980.94 1363.86 983.82 1361.7 986.75 C1359.95 989.07 1358.14 991.35 1356.32 993.63 C1347.5 1004.74 1339.29 1016.28 1331.17 1027.91 C1318.03 1046.71 1318.03 1046.71 1305.88 1051.14 C1290.45 1056.78 1280.8 1066.53 1273 1081 C1272.59 1081.7 1272.19 1082.39 1271.77 1083.11 C1267.98 1090.02 1265.72 1097.48 1263.32 1104.95 C1263.04 1105.85 1262.75 1106.74 1262.45 1107.66 C1262.07 1108.88 1262.07 1108.88 1261.68 1110.12 C1261 1112 1261 1112 1260 1113 C1254.67 1113.46 1254.67 1113.46 1252.19 1111.75 C1249.09 1107.19 1249.6 1101.28 1250 1096 C1250.65 1092.77 1251.65 1089.73 1252.75 1086.62 C1253.21 1085.28 1253.21 1085.28 1253.69 1083.91 C1256.75 1075.27 1260.37 1066.88 1264.03 1058.49 C1268.34 1048.61 1272.46 1038.67 1276.5 1028.69 C1276.82 1027.91 1277.13 1027.13 1277.46 1026.32 C1283.38 1011.68 1289.1 996.97 1294.76 982.22 C1296.16 978.59 1297.58 974.96 1299.01 971.33 C1314.4 933.19 1314.4 933.19 1321 893 C1315.67 893.48 1315.67 893.48 1310.58 894.98 C1307 896.4 1303.42 896.8 1299.62 897.34 C1296.16 897.91 1296.16 897.91 1293.5 898.72 C1285.48 901.02 1277.86 901.43 1269.59 901.34 C1267.41 901.31 1265.23 901.32 1263.05 901.32 C1252.42 901.28 1252.42 901.28 1249 899 C1246.44 898.66 1246.44 898.66 1244 900 C1242.59 902.82 1241.59 905.34 1240.62 908.31 C1240.33 909.17 1240.03 910.03 1239.73 910.92 C1238.8 913.6 1237.9 916.3 1237 919 C1235.95 922.09 1234.88 925.17 1233.81 928.25 C1233.54 929.05 1233.26 929.84 1232.98 930.66 C1228.96 942.15 1224.44 953.46 1220.02 964.79 C1218.3 969.2 1216.63 973.62 1215 978.06 C1211.74 986.82 1208.23 995.48 1204.74 1004.16 C1201.2 1012.98 1197.71 1021.83 1194.25 1030.69 C1190.96 1039.1 1187.6 1047.48 1184.05 1055.79 C1181.66 1061.39 1179.36 1067.02 1177.08 1072.67 C1172.84 1083.17 1168.49 1093.62 1163.94 1104 C1163.47 1105.06 1163.01 1106.12 1162.53 1107.22 C1162.09 1108.2 1161.66 1109.18 1161.21 1110.19 C1160.83 1111.05 1160.45 1111.91 1160.06 1112.79 C1159 1115 1159 1115 1157 1118 C1155.05 1118.29 1155.05 1118.29 1152.88 1118.19 C1150.96 1118.09 1150.96 1118.09 1149 1118 C1144.42 1105.17 1151.41 1091.18 1156.16 1079.16 C1157.02 1076.95 1157.85 1074.74 1158.67 1072.52 C1164.21 1057.66 1170.3 1043.02 1176.36 1028.37 C1186.54 1003.83 1186.54 1003.83 1196 979 C1197.19 975.75 1198.37 972.5 1199.56 969.25 C1199.86 968.44 1200.16 967.63 1200.46 966.79 C1202.07 962.42 1203.75 958.1 1205.56 953.81 C1216.73 927.47 1216.73 927.47 1215.28 899.42 C1212.2 892.43 1205.9 887.68 1198.93 884.88 C1182.18 879.84 1156.98 877.53 1140.7 885.07 C1139.86 885.53 1139.86 885.53 1139 886 C1139.16 886.49 1139.31 886.98 1139.47 887.49 C1142.1 900.01 1139.64 911.48 1135.11 923.13 C1133.81 926.5 1132.56 929.88 1131.32 933.27 C1125.22 949.79 1118.84 966.19 1112.35 982.56 C1110.99 986.03 1109.64 989.51 1108.29 992.98 C1103.81 1004.52 1099.2 1015.97 1094.25 1027.31 C1088.57 1040.35 1083.45 1053.58 1078.43 1066.89 C1073.41 1080.13 1068.08 1093.22 1062.25 1106.12 C1060.79 1109.53 1059.77 1112.82 1059.02 1116.44 C1058.86 1117.21 1058.7 1117.99 1058.53 1118.78 C1058.22 1120.32 1057.94 1121.85 1057.69 1123.39 C1057.29 1125.51 1057.29 1125.51 1056 1129 C1053.04 1130.56 1053.04 1130.56 1050 1131 C1046.81 1129.77 1045.42 1128.82 1043.86 1125.75 C1036.64 1102.7 1059.5 1068.39 1068.82 1048.01 C1081.63 1023.91 1081.63 1023.91 1081.94 998.06 C1081.63 997.38 1081.32 996.7 1081 996 C1080.34 996 1079.68 996 1079 996 C1078.67 995.01 1078.34 994.02 1078 993 C1076.35 991.8 1076.35 991.8 1074.31 990.88 C1073.65 990.54 1072.98 990.21 1072.3 989.87 C1067.23 987.96 1062.09 987.87 1056.72 987.87 C1056.03 987.87 1055.35 987.87 1054.64 987.86 C1053.18 987.86 1051.73 987.87 1050.27 987.87 C1048.1 987.87 1045.93 987.87 1043.76 987.86 C1027.27 987.74 1027.27 987.74 1011 990 C1011.16 990.62 1011.33 991.24 1011.5 991.88 C1012.73 999.56 1011.92 1007.31 1011 1015 C1008 1014 1008 1014 1006.61 1011.74 C1006.14 1010.8 1005.67 1009.85 1005.19 1008.88 C1000.31 999.62 994.68 993.09 984.46 989.89 C961.22 984.48 939.21 992.03 919.61 1004.08 C916.7 1006 913.84 1007.97 911 1010 C909.75 1010.87 909.75 1010.87 908.48 1011.77 C905.65 1013.77 905.65 1013.77 903 1016 C903 1016.66 903 1017.32 903 1018 C902.46 1018.23 901.93 1018.45 901.38 1018.69 C896.28 1021.5 891.92 1025.73 888 1030 C888 1030.66 888 1031.32 888 1032 C887.36 1032.27 886.72 1032.54 886.06 1032.81 C883.67 1033.89 883.67 1033.89 883 1037 C882.34 1037 881.68 1037 881 1037 C879.41 1038.71 879.41 1038.71 877.88 1040.88 C877.07 1041.95 877.07 1041.95 876.24 1043.05 C874.82 1044.9 874.82 1044.9 875 1047 C874.34 1047 873.68 1047 873 1047 C871.38 1049.13 869.9 1051.26 868.44 1053.5 C867.99 1054.18 867.55 1054.86 867.09 1055.56 C852.93 1077.42 832 1110.39 832 1137 C831.01 1137 830.02 1137 829 1137 C828.99 1136.33 828.97 1135.66 828.96 1134.97 C828.63 1128.4 827.48 1122.41 825.62 1116.12 C825.42 1115.41 825.21 1114.7 824.99 1113.97 C822.88 1106.28 822.88 1106.28 817.81 1100.62 C817.21 1100.42 816.62 1100.21 816 1100 C816 1100.66 816 1101.32 816 1102 C815.01 1102.33 814.02 1102.66 813 1103 C811.52 1104.63 810.11 1106.33 808.75 1108.06 C805.36 1112.32 801.89 1116.43 798.21 1120.44 C796.8 1121.93 796.8 1121.93 797 1124 C796.36 1124.27 795.72 1124.54 795.06 1124.81 C792.67 1125.89 792.67 1125.89 792 1129 C790.69 1129.71 789.35 1130.37 788 1131 C786.87 1131.99 785.77 1133.01 784.69 1134.06 C763.78 1152.65 735.39 1160.47 708 1159 C696.73 1157.56 686.42 1152.54 678 1145 C677.34 1145 676.68 1145 676 1145 C675.72 1144.42 675.44 1143.85 675.14 1143.25 C674.06 1141.12 672.89 1139.07 671.69 1137 C664.06 1123.23 660.44 1109.56 660.69 1093.81 C660.7 1092.64 660.71 1091.46 660.72 1090.25 C661.3 1052.9 661.3 1052.9 669 1041 C671.07 1039.95 671.07 1039.95 673.62 1039.18 C674.56 1038.89 675.49 1038.6 676.46 1038.31 C677.44 1038.02 678.42 1037.73 679.44 1037.44 C680.39 1037.15 681.33 1036.86 682.31 1036.56 C700.27 1031.1 700.27 1031.1 708.69 1029.81 C709.7 1029.65 710.72 1029.5 711.76 1029.33 C712.5 1029.22 713.24 1029.11 714 1029 C714.36 1030.18 714.73 1031.37 715.1 1032.59 C717.86 1041.36 720.59 1049.45 726 1057 C726.68 1058.03 727.36 1059.06 728.06 1060.12 C738.25 1071.66 755.45 1076.19 770.16 1077.22 C794.79 1077.91 815.44 1064.86 834 1050 C834.57 1049.55 835.14 1049.11 835.72 1048.65 C837.19 1047.48 838.6 1046.24 840 1045 C840 1044.34 840 1043.68 840 1043 C840.99 1042.67 841.98 1042.34 843 1042 C861.41 1025.06 873.04 998.37 883 976 C883.31 975.31 883.61 974.63 883.93 973.92 C892.48 954.15 892.61 926.38 885.3 906.07 C881 895.62 874.26 886.66 866 879 C865.41 878.41 864.83 877.82 864.22 877.21 C844.81 858.52 817.63 855.16 791.9 855.62 C782.41 855.88 773.57 857.63 764.48 860.28 Z M1117 934 C1116.67 935.32 1116.34 936.64 1116 938 C1116.66 938 1117.32 938 1118 938 C1117.67 936.68 1117.34 935.36 1117 934 Z M1523 1023 C1522.8 1023.77 1522.59 1024.54 1522.38 1025.34 C1522.11 1026.34 1521.84 1027.34 1521.56 1028.38 C1521.3 1029.37 1521.03 1030.37 1520.75 1031.4 C1520 1034 1520 1034 1519 1036 C1518.96 1038 1518.96 1040 1519 1042 C1518.34 1042 1517.68 1042 1517 1042 C1513.89 1052.48 1512.37 1062.14 1512.53 1073.07 C1512.56 1075.26 1512.55 1077.45 1512.54 1079.64 C1512.56 1091.33 1513.68 1103.38 1521 1113 C1522.94 1114.69 1524.71 1115.78 1527 1117 C1527.37 1115.67 1527.37 1115.67 1527.75 1114.31 C1534.99 1089.01 1534.99 1089.01 1537 1087 C1537.02 1085.15 1536.99 1083.29 1536.94 1081.44 C1536.89 1076.94 1537.29 1073.28 1538.56 1069 C1539.27 1065.79 1539.08 1062.64 1538.99 1059.37 C1539 1057 1539 1057 1539.75 1053.5 C1540.4 1044.35 1533.87 1036.26 1529 1029 C1528.58 1028.33 1528.16 1027.66 1527.73 1026.97 C1526.88 1025.61 1525.95 1024.3 1525 1023 C1524.34 1023 1523.68 1023 1523 1023 Z M751 1104 C748.6 1108.38 747.31 1112.34 746.36 1117.23 C746.23 1117.9 746.1 1118.57 745.96 1119.26 C745.69 1120.66 745.42 1122.07 745.16 1123.48 C744.75 1125.63 744.32 1127.78 743.9 1129.92 C743.63 1131.29 743.37 1132.67 743.11 1134.04 C742.87 1135.28 742.63 1136.52 742.39 1137.8 C742.04 1140.66 742.03 1142.33 743 1145 C748.61 1143.36 753.39 1141.66 758 1138 C758 1137.34 758 1136.68 758 1136 C758.66 1136 759.32 1136 760 1136 C762.67 1133.67 762.67 1133.67 765 1131 C765 1130.34 765 1129.68 765 1129 C765.66 1129 766.32 1129 767 1129 C767.88 1126.79 767.88 1126.79 768 1124 C766.36 1121.04 766.36 1121.04 763.94 1118.19 C763.1 1117.13 762.27 1116.08 761.43 1115.03 C760.63 1114.03 759.83 1113.03 759 1112 C757.38 1109.79 755.78 1107.56 754.19 1105.33 C753.8 1104.89 753.41 1104.45 753 1104 C752.34 1104 751.68 1104 751 1104 Z M1551 1139 C1551.05 1140.13 1551.09 1141.26 1551.14 1142.42 C1551.5 1155.06 1549.93 1166.71 1547 1179 C1546.82 1179.77 1546.64 1180.53 1546.45 1181.32 C1541.04 1203.3 1528.66 1223.47 1514 1240.56 C1511.79 1242.73 1511.79 1242.73 1512 1245 C1511.34 1245 1510.68 1245 1510 1245 C1508.64 1246.39 1508.64 1246.39 1507.19 1248.25 C1503.77 1252.28 1500.07 1255.87 1496.19 1259.44 C1495.61 1259.97 1495.04 1260.5 1494.44 1261.05 C1490.27 1264.87 1490.27 1264.87 1488 1266 C1488 1266.66 1488 1267.32 1488 1268 C1487.32 1268.21 1486.64 1268.41 1485.94 1268.62 C1482.89 1270.05 1480.83 1271.87 1478.34 1274.09 C1462.27 1287.22 1443.69 1295.27 1423 1297.12 C1422.08 1297.21 1421.16 1297.29 1420.22 1297.38 C1405.07 1298.67 1390.67 1298.59 1376.16 1293.49 C1373.73 1292.94 1372.33 1293.21 1370 1294 C1370.75 1294.6 1371.5 1295.21 1372.27 1295.83 C1373.25 1296.63 1374.24 1297.43 1375.25 1298.25 C1376.22 1299.04 1377.2 1299.83 1378.2 1300.64 C1381 1303 1381 1303 1382.95 1305.11 C1385.61 1307.56 1388.29 1308.68 1391.62 1310.06 C1392.24 1310.32 1392.85 1310.58 1393.49 1310.84 C1397.98 1312.68 1402.52 1314.19 1407.21 1315.46 C1409 1316 1409 1316 1410 1317 C1412.74 1317.11 1415.46 1317.16 1418.21 1317.17 C1419.04 1317.17 1419.88 1317.17 1420.74 1317.18 C1422.52 1317.18 1424.3 1317.19 1426.08 1317.19 C1428.76 1317.19 1431.45 1317.21 1434.13 1317.22 C1454.68 1317.29 1471.09 1312.45 1489.19 1302.95 C1490.8 1302.11 1492.41 1301.29 1494.04 1300.47 C1505.99 1294.27 1516.62 1285.61 1526 1276 C1526.89 1275.14 1526.89 1275.14 1527.8 1274.26 C1532.99 1269.23 1537.86 1263.93 1542 1258 C1542 1257.34 1542 1256.68 1542 1256 C1542.66 1256 1543.32 1256 1544 1256 C1556.05 1236.18 1566.38 1215.29 1573 1193 C1573.52 1191.48 1573.52 1191.48 1574.05 1189.93 C1577.01 1180.78 1576.67 1170.88 1572.32 1162.2 C1570.22 1158.69 1567.9 1155.37 1565.49 1152.07 C1564 1150 1564 1150 1563 1148 C1562.34 1148 1561.68 1148 1561 1148 C1560.79 1147.44 1560.59 1146.89 1560.38 1146.31 C1558.42 1143.03 1556.06 1141.29 1553 1139 C1552.34 1139 1551.68 1139 1551 1139 Z M1327 1276 C1326.11 1277.03 1325.23 1278.07 1324.38 1279.12 C1322.12 1281.86 1319.75 1283.8 1317 1286 C1317 1286.66 1317 1287.32 1317 1288 C1315.35 1288.66 1313.7 1289.32 1312 1290 C1312 1290.66 1312 1291.32 1312 1292 C1311.25 1292.27 1310.5 1292.55 1309.73 1292.83 C1307.21 1293.91 1305.47 1295.04 1303.31 1296.69 C1284.63 1309.35 1262.8 1310.56 1241 1310 C1241.33 1310.66 1241.66 1311.32 1242 1312 C1243.98 1312.62 1245.99 1313.17 1248 1313.69 C1253.63 1315.33 1257.51 1317.37 1261.9 1321.22 C1270.93 1328.89 1282.51 1331.54 1294.25 1331.06 C1304.43 1329.88 1313.21 1325.55 1322.19 1320.88 C1323.16 1320.37 1323.16 1320.37 1324.15 1319.86 C1327.32 1318.14 1328.96 1317.06 1331 1314 C1332.11 1313.53 1333.23 1313.05 1334.38 1312.56 C1338.8 1310.51 1341.69 1307.48 1345 1304 C1349.31 1299.51 1353.04 1296.11 1359 1294 C1359.75 1293.71 1360.5 1293.41 1361.27 1293.11 C1363.17 1292.38 1365.08 1291.69 1367 1291 C1364.28 1288.87 1361.54 1287.13 1358.5 1285.5 C1356.12 1284.23 1353.99 1282.99 1351.84 1281.34 C1350.11 1279.8 1350.11 1279.8 1348 1280 C1348 1279.34 1348 1278.68 1348 1278 C1346.05 1276.48 1346.05 1276.48 1343.62 1275 C1341.15 1273.43 1339.08 1272.08 1337 1270 C1332.4 1270 1330.19 1272.9 1327 1276 Z M1216 1290 C1215.04 1290.96 1214.11 1291.95 1213.19 1292.94 C1207.59 1298.63 1201.06 1303.68 1194.13 1307.64 C1193.08 1308.31 1193.08 1308.31 1192 1309 C1192 1309.66 1192 1310.32 1192 1311 C1191.22 1311.23 1190.43 1311.45 1189.62 1311.69 C1186.68 1312.75 1184.19 1313.92 1181.44 1315.38 C1168.59 1321.93 1154.33 1324.45 1140 1323 C1132.87 1320.49 1127.5 1315 1122.13 1309.86 C1120.05 1307.8 1120.05 1307.8 1117 1307 C1116.51 1305.52 1116.51 1305.52 1116 1304 C1111.97 1303.55 1111.97 1303.55 1109.69 1306.12 C1108.36 1307.55 1108.36 1307.55 1107 1309 C1102.65 1313.08 1098.27 1316.21 1093 1319 C1093 1319.66 1093 1320.32 1093 1321 C1092.05 1321.23 1091.1 1321.45 1090.12 1321.69 C1086.94 1322.59 1084.13 1323.86 1081.19 1325.38 C1065.36 1333.47 1046.74 1338.36 1029 1334 C1033.1 1338.53 1037.65 1341.5 1042.88 1344.62 C1043.65 1345.1 1044.43 1345.58 1045.23 1346.07 C1052.27 1350.33 1058.64 1353.54 1067 1354 C1068.55 1354.1 1068.55 1354.1 1070.13 1354.2 C1086.32 1354.74 1100.85 1348.99 1113.67 1339.3 C1114.11 1338.87 1114.55 1338.44 1115 1338 C1115 1337.34 1115 1336.68 1115 1336 C1115.79 1335.82 1116.57 1335.64 1117.38 1335.45 C1124.22 1333.89 1124.22 1333.89 1130.69 1331.25 C1136.25 1329.15 1140.5 1329.94 1145.93 1332.24 C1149.87 1334.18 1153.71 1336.23 1157.48 1338.47 C1168.05 1344.72 1177.6 1342.94 1189.23 1340.25 C1195.66 1338.46 1201.59 1335.93 1207.56 1333 C1208.58 1332.5 1208.58 1332.5 1209.62 1331.99 C1213.37 1330.08 1216.15 1328.09 1219 1325 C1220.42 1323.92 1221.83 1322.83 1223.25 1321.75 C1226.19 1319.26 1226.19 1319.26 1227.52 1315.77 C1227.55 1313.33 1227.55 1313.33 1227 1310 C1229.64 1309.67 1232.28 1309.34 1235 1309 C1234.48 1304.97 1232.57 1303.35 1229.56 1300.75 C1228.76 1300.04 1227.96 1299.34 1227.13 1298.61 C1225.18 1296.8 1225.18 1296.8 1223 1297 C1223 1296.34 1223 1295.68 1223 1295 C1221.79 1294.6 1221.79 1294.6 1220.56 1294.19 C1219.72 1293.8 1218.87 1293.4 1218 1293 C1217.67 1292.01 1217.34 1291.02 1217 1290 C1216.67 1290 1216.34 1290 1216 1290 Z M869 1305 C867.95 1306.26 866.93 1307.56 865.94 1308.88 C864.99 1310.11 864.99 1310.11 864.02 1311.37 C863.02 1312.67 863.02 1312.67 862 1314 C857.14 1320.24 852.1 1326.19 846.69 1331.97 C844.79 1333.82 844.79 1333.82 845 1336 C844.4 1336.26 843.8 1336.52 843.18 1336.79 C840.81 1338.11 839.77 1339.3 838.12 1341.44 C829.47 1351.67 816.19 1361.55 804 1367 C804 1367.66 804 1368.32 804 1369 C803.18 1369.17 803.18 1369.17 802.35 1369.34 C799.52 1370.14 797.06 1371.32 794.42 1372.62 C793.34 1373.14 792.26 1373.67 791.15 1374.21 C789.47 1375.03 789.47 1375.03 787.75 1375.88 C769.61 1384.76 751.4 1390.72 731 1391 C730.33 1391.01 729.66 1391.03 728.97 1391.04 C715.35 1391.3 701.26 1391.41 688 1388 C686.95 1387.73 685.89 1387.47 684.81 1387.19 C671.19 1383.52 658.94 1378.51 647 1371 C646.68 1374.09 646.68 1374.09 648.84 1376.2 C663.06 1391.28 663.06 1391.28 681 1399 C681 1399.66 681 1400.32 681 1401 C687.68 1404.14 694.33 1406.52 701.5 1408.19 C702.16 1408.34 702.82 1408.5 703.51 1408.66 C705.67 1409.14 707.83 1409.57 710 1410 C710.91 1410.18 711.81 1410.36 712.75 1410.55 C720.22 1411.94 727.41 1412.27 735 1412.19 C736.63 1412.19 736.63 1412.19 738.29 1412.19 C768.42 1412.02 797.33 1403.87 823 1388 C824.49 1387.25 825.99 1386.52 827.5 1385.81 C830.49 1384.26 832.78 1382.67 835.28 1380.43 C838.34 1377.88 841.71 1375.75 845.02 1373.55 C845.68 1373.04 846.33 1372.53 847 1372 C847 1371.34 847 1370.68 847 1370 C847.53 1369.79 848.06 1369.57 848.61 1369.35 C851.92 1367.48 854.55 1364.96 857.31 1362.38 C858.18 1361.57 858.18 1361.57 859.07 1360.74 C863.34 1356.72 867.25 1352.51 871 1348 C872.25 1346.62 873.5 1345.25 874.75 1343.88 C877.47 1340.78 879.26 1337.75 881 1334 C881.98 1332.98 882.98 1331.98 884 1331 C884 1330.34 884 1329.68 884 1329 C884.66 1329 885.32 1329 886 1329 C885.38 1325 883.4 1322.2 881 1319 C880.34 1319 879.68 1319 879 1319 C878.62 1317.91 878.62 1317.91 878.22 1316.8 C876.94 1313.86 875.43 1311.69 873.44 1309.19 C872.82 1308.4 872.2 1307.61 871.56 1306.79 C870.79 1305.91 870.79 1305.91 870 1305 C869.67 1305 869.34 1305 869 1305 Z M994.12 1315.44 C971.79 1336.42 948.01 1349.7 917 1349 C917 1349.66 917 1350.32 917 1351 C932.15 1362.45 945.87 1367.62 965 1367 C966.68 1366.38 968.35 1365.71 970 1365 C971.39 1364.74 972.79 1364.49 974.19 1364.25 C982.87 1362.4 990.2 1356.47 997 1351 C997.49 1350.61 997.99 1350.21 998.5 1349.81 C1006.65 1343.28 1013.18 1336.73 1019 1328 C1018.27 1327.45 1017.54 1326.91 1016.79 1326.35 C1013.9 1323.92 1011.71 1321.39 1009.38 1318.44 C1005.95 1313.98 1005.95 1313.98 1002 1310 C998.56 1310 996.5 1313.15 994.12 1315.44 Z " fill="#000000" transform="translate(0,0)"/>
<path d="M0 0 C2.62 1.83 2.97 2.91 4 6 C5.79 23.32 -4.19 42.01 -14.67 55.08 C-21.45 63.17 -29.86 70.56 -40 74 C-42.79 74.12 -42.79 74.12 -45 74 C-44.91 72.5 -44.8 71 -44.69 69.5 C-44.63 68.66 -44.57 67.83 -44.51 66.97 C-43.84 63.08 -42.45 59.65 -41 56 C-40.49 54.65 -39.99 53.3 -39.49 51.95 C-19.39 -1.36 -19.39 -1.36 0 0 Z " fill="#000000" transform="translate(1171,227)"/>
<path d="M0 0 C3.49 5.24 2.46 10.6 1.31 16.62 C-5 44.34 -17.51 77.98 -37 99 C-38.33 100.45 -38.33 100.45 -39.69 101.94 C-44.28 106.04 -47.66 107.67 -53.84 107.5 C-57.71 106.61 -58.92 104.25 -61 101 C-66.14 90.71 -61.35 74.63 -58.05 64.46 C-51.69 45.89 -43.01 30.53 -31 15 C-30.56 14.4 -30.12 13.81 -29.67 13.19 C-24.67 6.67 -17.18 0.35 -9.12 -1.75 C-5.5 -2.04 -3.3 -1.5 0 0 Z " fill="#000000" transform="translate(1379,548)"/>
<path d="M0 0 C2.71 2.69 3.89 4.33 4.5 8.13 C4.47 9.83 4.47 9.83 4.44 11.56 C4.44 12.68 4.43 13.79 4.43 14.94 C3.71 24.67 0.14 33.76 -3.69 42.62 C-4.13 43.67 -4.58 44.71 -5.04 45.79 C-5.93 47.89 -6.84 49.99 -7.75 52.09 C-8.84 54.63 -9.91 57.19 -10.98 59.75 C-14.67 68.51 -18.97 76.83 -23.62 85.12 C-24.16 86.09 -24.7 87.05 -25.26 88.04 C-34.73 104.58 -34.73 104.58 -43 108 C-46.72 108.84 -49.55 108.73 -52.99 107 C-56.62 104.35 -58.43 101.8 -59.5 97.44 C-62.47 75.09 -49.86 53.05 -39.92 33.79 C-39.09 32.17 -38.26 30.53 -37.44 28.9 C-31.23 16.94 -22.09 4.63 -9.14 -0.44 C-5.71 -1.34 -3.35 -1.12 0 0 Z " fill="#000000" transform="translate(856,592)"/>
<path d="M0 0 C8.59 5.35 13.49 12.16 16 22 C19.72 42.1 15.73 61.72 5 79 C2.88 81.96 0.65 84.52 -2 87 C-2.5 87.5 -3.01 88 -3.52 88.51 C-8.04 92.68 -12.43 94 -18.5 94 C-23.13 92.68 -26.02 90.79 -29 87 C-32.15 80.58 -30.76 73.38 -29.9 66.55 C-30.02 62.18 -31.27 60.35 -34 57 C-41.03 50.85 -51.24 49.42 -60.33 49.71 C-70.82 50.85 -78.17 55.31 -84.98 63.26 C-94.38 76.01 -98.4 91.05 -98.97 106.69 C-99.11 108.94 -99.29 110.87 -100 113 C-102.7 114.93 -102.7 114.93 -106 116 C-106.97 116.34 -107.94 116.68 -108.94 117.03 C-112.29 118.02 -115.65 119.01 -119 120 C-120.25 120.4 -121.5 120.8 -122.78 121.21 C-124.01 121.6 -125.24 121.98 -126.5 122.38 C-127.62 122.73 -128.75 123.09 -129.91 123.46 C-133.37 124.06 -134.93 123.62 -138 122 C-136.66 107.98 -129.44 95.32 -123 83 C-122.57 82.17 -122.14 81.34 -121.7 80.48 C-106.5 52.18 -82.37 20.38 -53 6 C-52.34 6 -51.68 6 -51 6 C-51 5.34 -51 4.68 -51 4 C-48.48 3.04 -45.96 2.08 -43.44 1.12 C-42.73 0.86 -42.03 0.59 -41.3 0.31 C-28.32 -4.6 -12.61 -7.66 0 0 Z " fill="#000000" transform="translate(814,894)"/>
<path d="M0 0 C0.99 0 1.98 0 3 0 C2.12 9.75 0.78 19.45 -0.54 29.15 C-1.57 36.96 -2.32 44.7 -2.72 52.57 C-3.95 67.81 -9.11 84.79 -20 96 C-26.69 101.03 -33.5 103.77 -42 103 C-46.68 101.26 -49.21 99.13 -52 95 C-53.21 91.38 -53.32 88.81 -53 85 C-50.51 80.02 -48.1 78.07 -43 76 C-39.58 75.64 -36.27 75.52 -32.83 75.47 C-28.39 75.33 -25.53 74.75 -22 72 C-19.97 68.95 -19.3 66.98 -19.34 63.32 C-20.55 59.09 -23.84 56.39 -26.93 53.39 C-29.2 50.77 -29.83 49.43 -30 46 C-27.04 34.46 -17.72 24.08 -10.72 14.68 C-8.98 12.35 -7.28 9.99 -5.62 7.6 C-4.92 6.6 -4.22 5.59 -3.5 4.56 C-2.89 3.68 -2.28 2.79 -1.66 1.88 C-1.11 1.26 -0.56 0.64 0 0 Z " fill="#000000" transform="translate(1368,1004)"/>
<path d="M0 0 C3.23 1.91 5.48 3.32 6.63 7.02 C9.71 29.36 -3.56 53.02 -12 73 C-12.27 73.65 -12.54 74.29 -12.83 74.96 C-13.62 76.85 -14.43 78.74 -15.23 80.63 C-15.69 81.72 -16.16 82.82 -16.64 83.94 C-22.61 97.34 -30.55 111.7 -43 120 C-46.82 121.27 -50.03 121.85 -54 121 C-57.3 119.23 -59.49 116.92 -61.31 113.62 C-67.39 90.43 -56.47 63.53 -45.04 43.51 C-43.83 41.46 -42.62 39.42 -41.38 37.39 C-39.88 34.98 -39.88 34.98 -39 32 C-38.34 32 -37.68 32 -37 32 C-36.74 31.29 -36.48 30.58 -36.22 29.85 C-31.29 18.32 -21.65 5.23 -10 0 C-6.14 -1.29 -3.95 -0.94 0 0 Z " fill="#000000" transform="translate(983,1022)"/>
<path d="M0 0 C1.68 0.29 3.34 0.62 5 1 C5.33 2.32 5.66 3.64 6 5 C2.73 4.44 1.17 3.5 -1 1 C-0.67 0.67 -0.34 0.34 0 0 Z " fill="#000000" transform="translate(572,1239)"/>
</svg>
